<?xml version="1.0" standalone="no"?>
<!DOCTYPE svg PUBLIC "-//W3C//DTD SVG 20010904//EN"
 "http://www.w3.org/TR/2001/REC-SVG-20010904/DTD/svg10.dtd">
<svg version="1.0" xmlns="http://www.w3.org/2000/svg"
 width="1003.000000pt" height="1003.000000pt" viewBox="0 0 1003.000000 1003.000000"
 preserveAspectRatio="xMidYMid meet">

<g transform="translate(0.000000,1003.000000) scale(0.100000,-0.100000)"
fill="#000000" stroke="none">
<path d="M2 9549 c3 -470 3 -482 23 -493 11 -6 22 -14 25 -17 3 -3 38 -14 77
-24 40 -10 73 -22 73 -26 0 -4 20 -15 45 -25 25 -9 45 -21 45 -25 0 -13 227
-11 235 1 3 6 15 10 26 10 10 0 19 -4 19 -10 0 -5 24 -10 54 -10 30 0 89 -5
131 -11 104 -14 125 -17 158 -18 16 -1 26 -5 22 -11 -4 -6 7 -10 27 -10 18 0
65 -9 103 -20 39 -11 84 -20 102 -20 17 0 33 -6 35 -12 6 -16 141 -14 146 1 2
6 20 11 40 11 21 0 49 6 63 14 14 7 48 17 75 21 27 4 42 10 34 13 -12 4 32 20
110 39 14 3 27 9 30 14 3 4 38 16 78 26 40 11 70 22 67 24 -2 3 29 11 69 18
40 6 82 18 92 26 11 8 27 15 37 15 9 0 17 5 17 10 0 6 10 10 23 10 48 0 67 40
93 189 17 96 35 132 93 180 22 19 45 47 50 64 14 39 15 37 -13 37 -13 0 -29 7
-36 15 -7 8 -16 12 -21 9 -5 -3 -9 2 -9 10 0 9 3 15 8 14 14 -5 61 52 55 68
-3 9 4 24 18 37 l23 22 -44 8 c-25 4 -63 5 -85 2 -22 -3 -58 -9 -80 -12 -22
-3 -45 -9 -50 -14 -11 -9 -63 -15 -214 -25 -126 -8 -186 -18 -184 -30 1 -5 -8
-10 -20 -10 -12 -1 -37 -4 -55 -7 -84 -14 -252 -5 -252 14 0 4 -17 13 -37 18
-51 14 -123 14 -123 0 0 -8 -4 -8 -12 -1 -7 5 -29 13 -48 17 -19 4 -42 14 -51
21 -10 10 -41 15 -90 15 -120 1 -207 38 -230 98 -5 13 -12 21 -15 18 -7 -7
-25 6 -76 56 -29 29 -38 34 -38 20 0 -11 -3 -14 -8 -7 -4 6 -15 13 -25 17 -10
4 -15 11 -12 17 4 6 -5 10 -20 10 -14 0 -36 7 -49 15 -22 15 -24 14 -30 -7 -6
-21 -7 -22 -20 -5 -7 9 -18 17 -25 17 -6 0 -11 5 -11 10 0 6 -12 10 -26 10
-23 0 -25 3 -20 25 l6 25 -200 0 -200 0 2 -481z"/>
<path d="M4796 10017 c-30 -18 -66 -59 -61 -67 3 -4 -2 -13 -10 -20 -20 -17
-19 -83 1 -123 34 -67 44 -70 203 -78 160 -8 219 -16 240 -33 8 -6 63 -10 135
-11 122 0 146 3 157 19 4 4 16 3 28 -3 14 -8 21 -8 21 -1 0 15 27 12 33 -4 3
-7 18 -16 34 -19 23 -4 31 -14 41 -49 9 -32 10 -52 3 -71 -6 -15 -7 -27 -1
-27 4 0 11 8 13 18 4 14 5 15 6 1 1 -18 26 -25 131 -34 36 -4 74 -10 85 -15
11 -5 65 -16 120 -25 55 -9 105 -21 112 -27 16 -13 203 -14 212 -1 11 15 60
33 76 27 8 -4 15 -2 15 2 0 5 28 10 61 12 34 2 72 7 85 12 13 5 24 6 24 1 0
-4 21 -4 48 2 55 11 164 10 172 -2 3 -4 30 -16 60 -26 30 -10 57 -21 60 -25 3
-3 26 -17 53 -29 26 -13 45 -27 41 -32 -3 -5 1 -12 10 -15 8 -3 26 -23 40 -44
14 -21 48 -61 75 -89 28 -27 51 -55 51 -60 0 -5 8 -16 18 -23 16 -13 19 -19
25 -56 1 -9 7 -24 12 -32 13 -21 24 -101 18 -132 -4 -19 -12 -28 -24 -28 -19
0 -23 -9 -19 -44 1 -14 -3 -18 -19 -13 -28 7 -26 -8 4 -39 14 -14 25 -31 25
-39 0 -8 5 -15 10 -15 6 0 15 -11 20 -25 5 -14 17 -28 25 -31 8 -4 15 -11 15
-17 0 -6 7 -19 17 -29 20 -22 28 -37 88 -155 25 -50 53 -97 60 -103 8 -7 15
-18 15 -24 0 -7 9 -31 20 -54 11 -22 20 -51 20 -63 0 -11 6 -35 14 -52 64
-145 109 -523 76 -637 -14 -47 -12 -91 4 -112 18 -24 31 -23 49 5 26 39 108
127 175 189 16 15 45 35 66 44 20 10 36 21 36 25 0 5 27 16 60 25 33 9 60 21
60 25 0 5 17 17 38 27 20 9 39 20 42 23 8 9 144 29 202 29 29 0 60 5 68 11 13
8 12 12 -7 26 -13 8 -23 24 -23 34 0 11 -5 19 -11 19 -5 0 -8 4 -5 8 3 5 -4
22 -14 39 -16 26 -17 37 -8 61 10 25 9 33 -5 47 -20 19 -22 46 -6 62 7 7 17
33 24 60 l12 48 79 2 c44 1 89 2 102 2 13 1 22 7 22 16 0 20 40 19 54 -1 13
-17 74 -23 84 -8 4 5 19 15 34 23 23 12 39 12 103 1 41 -7 75 -16 75 -21 0 -4
19 -12 43 -18 110 -27 137 -35 137 -42 0 -5 15 -15 34 -24 19 -9 37 -24 40
-33 3 -9 14 -42 25 -72 21 -58 29 -156 11 -145 -6 3 -10 -4 -10 -17 -3 -110
-14 -218 -26 -242 -8 -17 -10 -33 -5 -40 5 -6 12 -33 15 -61 4 -27 19 -68 33
-90 40 -61 136 -153 171 -166 18 -6 29 -15 26 -20 -3 -5 -2 -9 3 -9 7 0 26
-16 108 -89 11 -10 37 -24 57 -31 20 -8 35 -17 32 -21 -2 -4 5 -11 17 -14 24
-8 99 -80 99 -95 0 -6 4 -10 8 -10 5 0 15 -12 23 -27 16 -33 76 -91 102 -99 9
-3 17 -9 17 -14 0 -5 15 -17 33 -26 17 -9 36 -23 40 -30 4 -8 14 -14 22 -14 8
0 22 -11 31 -25 9 -14 20 -25 25 -25 5 0 9 353 9 825 l0 825 -25 16 c-14 9
-25 22 -25 29 0 8 -8 16 -19 20 -10 3 -39 25 -64 49 -26 24 -62 51 -82 60 -19
9 -35 21 -35 25 0 4 -19 16 -42 27 -24 10 -45 22 -48 25 -3 4 -24 15 -48 24
-23 10 -42 20 -42 24 0 4 -19 16 -42 26 -24 10 -49 25 -56 32 -8 7 -33 18 -58
24 -24 6 -44 15 -44 19 0 4 -17 11 -37 15 -21 4 -42 10 -48 15 -5 4 -21 10
-35 13 -14 3 -44 12 -67 21 -59 22 -271 38 -298 23 -13 -8 -76 -12 -180 -12
-107 0 -167 -4 -180 -12 -11 -7 -36 -19 -55 -27 -80 -36 -120 -141 -120 -317
0 -124 -42 -179 -70 -94 -6 19 -20 37 -30 40 -10 3 -21 16 -24 29 -6 25 16 81
27 69 4 -3 7 0 7 8 0 12 2 11 11 -1 9 -12 10 -12 5 4 -4 11 -2 22 4 26 5 3 17
37 26 76 17 74 26 99 67 184 26 54 90 130 108 130 5 0 9 7 9 15 0 8 3 15 8 15
4 0 18 10 32 23 14 13 41 32 60 43 56 31 120 88 120 106 0 5 5 6 12 2 7 -4 8
-3 4 4 -4 6 0 19 9 29 8 10 14 20 13 23 -2 3 3 12 10 20 33 40 72 94 72 101 0
5 5 9 11 9 12 0 69 60 69 73 0 4 0 9 0 12 0 5 33 46 60 75 9 8 26 32 39 53 12
20 31 42 42 47 10 6 19 17 19 25 0 8 5 15 10 15 6 0 26 16 46 35 19 19 31 35
27 35 -4 0 8 11 26 24 38 29 63 61 54 70 -3 3 -1 6 5 6 5 0 13 -6 15 -12 3 -7
6 -4 6 7 1 11 11 25 23 30 13 6 30 24 38 40 10 20 21 30 32 27 10 -2 19 5 23
17 3 12 11 21 16 21 5 0 9 5 9 10 0 7 -241 10 -704 10 l-703 0 -7 -50 c-4 -27
-11 -50 -17 -50 -18 0 -30 -53 -30 -133 0 -109 20 -264 37 -278 8 -6 14 -26
14 -44 0 -18 7 -38 15 -45 8 -7 15 -21 15 -31 0 -21 38 -89 50 -89 5 0 12 -9
15 -20 3 -11 13 -20 20 -20 21 0 65 -52 65 -75 0 -12 5 -26 12 -33 17 -17 11
-224 -8 -253 -3 -5 2 -57 10 -116 8 -60 16 -139 17 -178 l2 -69 -65 -1 c-37 0
-69 3 -73 6 -3 4 -8 29 -11 55 -4 49 -28 151 -44 189 -4 11 -14 41 -20 68 -7
26 -17 47 -21 47 -5 0 -9 7 -9 16 0 8 -11 39 -24 67 -41 89 -56 125 -56 135 0
10 -48 108 -73 147 -50 81 -274 315 -302 315 -9 0 -13 5 -10 10 3 6 2 10 -3
10 -5 0 -20 10 -34 23 -13 12 -41 31 -61 42 -20 11 -37 23 -37 26 0 4 -21 15
-47 25 -27 10 -50 21 -53 25 -3 4 -25 15 -50 25 -25 10 -47 21 -50 25 -3 3
-27 14 -55 23 -27 10 -54 21 -60 26 -5 4 -35 16 -65 26 -30 10 -60 23 -67 30
-6 6 -39 17 -72 25 -34 7 -61 16 -61 19 0 4 -38 15 -85 25 -47 10 -85 21 -85
25 0 3 -23 12 -51 18 -73 17 -1756 16 -1783 -1z m3406 -56 c2 -7 13 -24 26
-37 26 -27 29 -78 6 -101 -13 -13 -17 -14 -24 -3 -4 7 -12 10 -18 6 -22 -13
-71 15 -82 48 -13 40 -9 86 7 86 7 0 13 5 13 11 0 6 6 9 13 6 8 -3 20 -1 28 4
15 9 26 2 31 -20z m-890 -1119 c-16 -5 -5 -22 14 -22 8 0 12 5 9 10 -3 6 1 10
11 10 11 0 15 -6 11 -20 -3 -11 -1 -18 4 -14 5 3 9 -9 9 -25 0 -17 4 -31 9
-31 12 0 1 -41 -15 -58 -8 -8 -15 -9 -19 -2 -3 5 -15 10 -26 10 -12 0 -19 7
-19 20 0 11 -4 20 -9 20 -15 0 -24 41 -13 52 6 6 8 16 5 24 -6 16 18 44 32 36
5 -3 4 -7 -3 -10z"/>
<path d="M9906 10010 c-16 -16 -17 -28 -11 -85 3 -36 11 -63 16 -60 5 4 9 -1
9 -11 0 -18 60 -90 72 -86 4 1 8 -2 8 -8 0 -5 5 -10 10 -10 6 0 10 53 10 140
l0 140 -47 -1 c-33 0 -54 -6 -67 -19z"/>
<path d="M541 9984 c0 -11 3 -14 6 -6 3 7 2 16 -1 19 -3 4 -6 -2 -5 -13z"/>
<path d="M6350 9460 c0 -5 5 -10 10 -10 6 0 10 5 10 10 0 6 -4 10 -10 10 -5 0
-10 -4 -10 -10z"/>
<path d="M130 8631 c0 -6 -9 -11 -21 -11 -24 0 -91 -29 -101 -44 -4 -6 -8 -70
-8 -141 0 -144 -1 -141 71 -181 19 -10 46 -28 60 -40 21 -16 47 -22 109 -27
46 -3 86 -10 89 -15 19 -31 322 -47 446 -24 38 7 72 16 75 20 6 9 126 29 233
38 42 3 77 10 77 15 0 5 10 9 23 9 35 0 210 39 216 48 4 5 34 13 68 19 34 7
77 19 95 27 53 25 168 66 228 82 30 8 64 19 75 24 11 6 39 16 63 25 23 8 53
26 66 40 13 14 28 25 34 25 6 0 14 9 17 20 3 11 10 20 15 20 4 0 7 8 6 17 -3
20 -40 31 -113 34 -30 1 -56 6 -58 9 -2 4 -28 3 -57 -1 -29 -5 -61 -6 -70 -3
-10 3 -18 2 -18 -3 0 -5 -19 -9 -42 -10 -24 -1 -64 -3 -90 -4 -27 -1 -48 -5
-48 -10 0 -5 -7 -6 -16 -2 -9 3 -20 0 -25 -8 -8 -12 -11 -12 -19 1 -5 9 -10
10 -10 3 0 -18 -54 -25 -295 -39 -75 -4 -133 -12 -137 -18 -6 -8 -10 -8 -16 1
-4 7 -51 13 -127 16 -155 5 -348 28 -357 41 -5 7 -8 7 -8 -1 0 -7 -11 -13 -25
-13 -14 0 -25 4 -25 10 0 11 -56 27 -125 35 -64 8 -90 12 -90 15 0 1 -37 4
-82 7 -57 3 -83 1 -83 -6z"/>
<path d="M6893 8538 c7 -13 31 -49 52 -82 22 -32 49 -75 61 -96 11 -21 27 -46
34 -55 16 -20 35 -51 49 -82 6 -12 21 -39 35 -60 14 -21 39 -74 56 -118 59
-149 83 -206 92 -211 4 -3 8 -14 8 -25 0 -11 9 -39 19 -62 11 -24 23 -56 27
-72 9 -38 35 -74 52 -75 16 0 9 58 -14 125 -8 22 -14 49 -14 60 0 11 -13 52
-29 90 -16 39 -32 90 -36 115 -8 58 -27 99 -62 136 -33 35 -104 174 -102 200
0 3 -10 14 -23 25 -54 45 -78 69 -78 79 0 5 -4 10 -10 10 -5 0 -16 13 -24 28
-21 40 -71 92 -89 92 -13 0 -14 -4 -4 -22z"/>
<path d="M4437 8344 c-13 -14 5 -24 43 -24 24 0 40 5 44 15 4 12 -4 15 -38 15
-23 0 -46 -3 -49 -6z"/>
<path d="M5580 8170 c0 -5 4 -10 9 -10 6 0 13 5 16 10 3 6 -1 10 -9 10 -9 0
-16 -4 -16 -10z"/>
<path d="M3117 8119 c7 -7 15 -10 18 -7 3 3 -2 9 -12 12 -14 6 -15 5 -6 -5z"/>
<path d="M5720 8120 c0 -5 5 -10 10 -10 6 0 10 5 10 10 0 6 -4 10 -10 10 -5 0
-10 -4 -10 -10z"/>
<path d="M2763 8050 c-23 -5 -65 -20 -95 -34 -29 -13 -65 -28 -80 -31 -36 -9
-45 -34 -10 -27 15 3 32 8 37 12 6 4 45 16 87 26 42 9 75 21 72 26 -3 4 5 8
18 8 14 0 33 7 44 15 18 14 18 14 -6 14 -14 -1 -44 -5 -67 -9z"/>
<path d="M4380 8053 c-138 -9 -296 -26 -305 -33 -5 -4 -17 -8 -25 -9 -127 -11
-316 -35 -320 -41 -3 -4 -52 -12 -110 -19 -83 -10 -118 -19 -167 -44 -35 -18
-63 -35 -63 -40 0 -9 -83 -87 -93 -87 -5 0 -6 -4 -2 -9 3 -5 1 -12 -4 -16 -18
-10 -71 -96 -71 -113 1 -40 15 -46 61 -24 24 11 62 24 84 28 22 4 49 13 60 20
23 14 151 44 189 44 15 0 26 4 26 9 0 9 122 41 160 41 17 0 21 3 12 9 -8 5 36
15 112 26 80 12 122 23 118 30 -3 5 1 4 10 -3 13 -10 17 -10 21 0 4 10 6 10 6
1 1 -9 22 -13 69 -13 92 0 235 -17 303 -34 36 -10 132 -17 280 -21 209 -5 279
-14 279 -36 0 -5 15 -9 33 -9 46 0 57 -15 57 -77 0 -39 -4 -53 -14 -53 -23 0
-28 -33 -12 -72 9 -20 12 -38 9 -42 -4 -3 -1 -6 5 -6 7 0 11 -3 10 -7 -1 -5 1
-22 4 -39 6 -28 10 -30 37 -26 21 3 31 10 31 21 0 10 9 27 20 39 l21 22 -31 0
c-20 0 -30 5 -30 15 0 17 5 17 35 6 24 -10 46 5 38 25 -3 7 2 17 11 20 9 3 14
10 11 14 -3 5 -1 11 5 15 5 3 10 14 10 25 0 10 7 21 16 24 24 9 31 7 14 -4
-12 -8 -10 -10 9 -10 13 0 21 3 17 7 -10 10 91 42 135 42 43 1 138 -26 159
-45 47 -42 58 -51 85 -68 17 -11 36 -28 43 -38 7 -10 19 -18 26 -18 13 0 45
-22 83 -57 13 -13 38 -30 55 -39 18 -9 40 -26 49 -38 87 -105 116 -143 169
-221 33 -49 58 -96 55 -102 -2 -7 1 -13 7 -13 6 0 9 -3 5 -6 -3 -3 3 -15 14
-27 10 -11 19 -28 19 -36 0 -9 3 -26 6 -38 4 -16 0 -23 -15 -28 -12 -4 -21
-15 -21 -27 0 -13 -5 -18 -14 -15 -8 3 -17 -1 -20 -9 -3 -8 -12 -14 -20 -14
-13 0 -31 -27 -28 -42 1 -5 -7 -8 -18 -8 -11 0 -20 -5 -20 -11 0 -6 9 -8 23
-4 22 6 22 6 2 -10 -13 -11 -31 -15 -51 -12 -24 4 -30 1 -30 -11 0 -58 -5 -77
-14 -62 -8 13 -10 12 -10 -3 0 -10 -4 -15 -10 -12 -5 3 -10 1 -10 -4 0 -6 -7
-11 -15 -11 -8 0 -15 -7 -15 -15 0 -8 -6 -15 -13 -15 -18 0 -16 -40 3 -60 8
-8 33 -50 55 -93 22 -43 52 -101 67 -130 15 -29 27 -59 27 -67 1 -9 6 -21 13
-28 11 -11 61 -145 94 -252 42 -139 74 -300 74 -377 0 -57 34 -138 54 -128 6
3 19 8 29 11 9 4 17 10 17 14 0 4 22 31 48 59 47 50 72 63 72 39 0 -10 3 -9 9
1 7 10 11 6 16 -17 7 -33 -3 -104 -14 -98 -4 3 -8 -5 -8 -16 -1 -11 -10 -29
-19 -39 -18 -20 -37 -50 -53 -86 -5 -11 -15 -24 -21 -28 -6 -4 -16 -17 -21
-28 -5 -12 -18 -35 -29 -52 -11 -16 -26 -42 -35 -57 -17 -31 -45 -37 -46 -10
-1 22 -27 -46 -28 -75 -1 -11 -10 -41 -22 -65 -85 -175 -105 -203 -144 -196
-29 6 -30 2 -9 -40 18 -36 34 -41 41 -13 3 11 23 26 49 36 24 9 44 23 44 30 0
8 8 16 18 19 9 3 26 25 37 49 11 23 26 49 35 57 8 8 20 24 27 35 6 11 44 72
83 135 39 63 77 124 83 135 7 11 17 23 24 28 11 7 57 80 91 143 8 14 20 28 28
31 8 3 14 11 14 18 0 18 104 116 140 132 18 7 43 13 56 13 13 0 24 5 24 10 0
6 23 10 50 10 28 0 50 -4 50 -10 0 -5 11 -10 25 -10 14 0 25 5 25 10 0 6 14
10 30 10 17 0 30 2 30 5 0 3 -26 32 -57 65 -32 32 -65 67 -74 77 -21 24 -49
46 -85 67 -34 21 -74 98 -74 145 0 31 -30 226 -51 331 -6 30 -15 75 -19 100
-7 42 -14 68 -57 220 -8 30 -24 74 -34 98 -11 23 -19 48 -19 55 0 11 -24 63
-59 127 -5 8 -24 45 -42 83 -57 113 -62 122 -71 125 -4 2 -8 9 -8 17 0 7 -7
19 -16 26 -9 7 -20 22 -25 34 -25 52 -83 133 -141 196 -21 22 -38 42 -38 44 0
12 -164 166 -191 180 -19 10 -36 21 -39 24 -3 4 -22 18 -44 31 -21 12 -50 34
-64 46 -14 13 -31 24 -37 24 -7 0 -15 7 -19 15 -3 8 -13 15 -23 15 -10 0 -31
11 -47 25 -15 13 -44 30 -64 36 -20 7 -42 17 -48 24 -6 6 -38 17 -70 24 -33 8
-61 16 -64 20 -6 8 -138 41 -162 41 -10 0 -18 4 -18 8 0 9 -72 28 -145 38 -27
4 -52 10 -55 14 -15 22 -534 46 -720 33z"/>
<path d="M2160 7883 c-25 -2 -54 -7 -65 -12 -32 -14 -182 -31 -276 -31 -101 0
-210 -10 -205 -19 3 -4 -17 -15 -42 -26 -26 -10 -53 -27 -60 -37 -7 -10 -22
-18 -32 -18 -10 0 -25 -7 -34 -15 -8 -8 -21 -15 -30 -15 -8 0 -17 -4 -20 -9
-3 -4 -27 -14 -53 -21 -27 -7 -52 -16 -58 -20 -5 -4 -63 -16 -127 -26 -65 -10
-118 -22 -118 -26 0 -5 -17 -8 -38 -8 -21 0 -83 -7 -138 -15 -54 -8 -164 -15
-245 -15 -91 0 -149 -4 -156 -11 -8 -8 -13 -8 -17 0 -4 6 -12 11 -17 11 -6 0
-7 -6 -3 -12 6 -10 4 -10 -7 -2 -14 11 -21 11 -89 0 -19 -4 -101 -7 -183 -8
l-147 -2 0 -30 0 -31 133 -1 c72 -1 164 -4 202 -8 39 -3 80 -6 93 -6 13 0 22
-6 22 -15 0 -8 -6 -15 -14 -15 -8 0 -21 -3 -30 -6 -11 -4 -16 -1 -16 10 0 20
-16 21 -24 1 -3 -9 -18 -15 -35 -15 -16 0 -36 -6 -43 -13 -28 -27 -77 -40
-125 -31 -27 4 -51 7 -56 6 -4 -1 -6 4 -5 10 2 8 -9 14 -27 15 -16 1 -40 5
-53 9 l-22 6 0 -170 0 -171 33 6 c65 11 178 -1 212 -23 14 -9 25 -12 25 -8 0
5 7 0 15 -10 8 -11 15 -14 15 -8 0 9 6 8 23 -2 12 -9 40 -17 61 -20 52 -6 104
-57 113 -108 3 -21 10 -41 14 -44 5 -3 9 -17 9 -32 0 -15 8 -32 17 -38 23 -13
103 -18 103 -7 0 5 24 15 53 22 28 8 63 20 77 27 14 8 59 23 100 33 41 11 71
20 65 21 -5 1 17 8 50 16 76 18 147 53 153 76 2 10 9 18 14 18 5 0 16 7 24 15
9 8 24 15 35 15 11 0 17 5 14 10 -3 6 2 10 12 10 10 1 36 9 58 20 22 11 46 19
53 20 6 0 12 4 12 9 0 5 21 17 48 27 26 10 56 24 67 31 11 7 38 18 60 24 22 6
43 15 46 20 3 5 44 17 92 26 47 9 84 20 82 24 -3 3 24 15 59 25 36 10 62 22
60 26 -3 4 2 8 11 8 17 0 86 29 95 40 7 9 76 40 89 40 6 0 11 3 11 8 0 4 17
16 38 27 20 11 39 22 42 25 3 3 22 13 43 22 20 10 37 23 37 28 0 6 5 8 10 5 6
-3 13 0 16 8 3 8 19 18 36 21 25 5 28 8 18 21 -8 9 -22 12 -41 8 -18 -3 -38 0
-52 10 -13 8 -35 13 -50 10 -30 -6 -35 7 -12 31 8 8 15 17 15 19 0 8 -118 3
-126 -5 -4 -5 -20 -8 -35 -8 -18 0 -32 -7 -39 -20 -6 -11 -15 -18 -19 -16 -4
3 -31 -3 -59 -13 -28 -10 -53 -16 -56 -13 -3 3 -6 0 -6 -6 0 -8 -11 -9 -32 -5
-22 4 -29 3 -24 -5 4 -7 1 -12 -8 -12 -9 0 -16 5 -16 11 0 5 -4 7 -10 4 -5 -3
-10 -2 -10 2 0 5 -20 9 -45 10 -25 1 -43 -2 -40 -6 2 -5 -53 -9 -123 -9 -70
-1 -127 -2 -127 -3 0 -4 -54 -11 -87 -11 -21 0 -38 -4 -38 -9 0 -5 -7 -9 -16
-9 -14 0 -14 3 -4 15 7 8 25 15 40 15 16 0 30 5 32 10 2 6 31 15 66 21 38 7
61 16 59 22 -5 15 33 34 81 43 20 4 45 11 55 16 10 5 41 11 70 14 100 8 137
13 145 18 4 3 37 7 72 11 35 3 67 9 70 13 3 4 28 8 55 9 60 3 136 21 150 37
13 15 87 51 98 48 5 -1 6 2 3 7 -4 5 -1 15 6 21 7 6 24 19 37 30 l24 20 -59
-2 c-32 -1 -79 -3 -104 -5z"/>
<path d="M2695 7689 c-16 -5 -50 -11 -75 -13 -25 -2 -63 -11 -85 -21 -22 -9
-50 -19 -62 -21 -12 -2 -33 -8 -45 -13 -13 -5 -27 -9 -32 -9 -5 0 -13 -7 -18
-15 -4 -9 -16 -13 -27 -10 -10 3 -22 0 -25 -6 -5 -7 5 -11 28 -11 19 0 37 4
40 8 9 14 86 14 86 0 0 -10 2 -10 9 1 5 8 16 11 25 8 10 -4 26 4 41 19 14 14
30 22 36 19 5 -4 16 -1 24 5 9 8 15 8 15 2 0 -5 9 -8 20 -5 11 3 20 9 20 14 0
5 10 9 23 9 22 0 54 35 39 43 -4 2 -20 0 -37 -4z"/>
<path d="M4450 7460 c0 -5 -22 -10 -50 -10 -27 0 -50 -4 -50 -9 0 -4 -21 -11
-47 -14 -26 -3 -49 -10 -51 -16 -5 -14 -32 -15 -32 -1 0 15 -27 12 -33 -3 -4
-10 37 -16 181 -25 102 -6 188 -8 192 -4 8 10 40 11 40 1 0 -5 -7 -9 -16 -9
-28 0 -5 -18 29 -22 27 -3 33 0 35 15 0 11 2 21 4 22 5 6 103 -17 108 -25 8
-11 175 -39 178 -29 7 17 22 9 22 -11 0 -24 39 -43 58 -28 28 23 13 46 -33 53
-25 3 -43 10 -40 14 2 5 -26 16 -62 25 -37 9 -70 21 -74 27 -3 6 -48 18 -100
26 -52 9 -95 20 -97 24 -5 13 -162 11 -162 -1z"/>
<path d="M5130 7353 c0 -18 5 -33 10 -33 13 0 13 30 0 50 -7 11 -10 7 -10 -17z"/>
<path d="M8200 7353 c-75 -6 -177 -28 -207 -46 -18 -10 -33 -21 -33 -22 0 -2
46 -1 103 2 105 6 337 -13 337 -27 0 -4 20 -11 44 -14 24 -4 68 -16 97 -27 84
-32 139 -49 170 -51 16 -1 29 -6 29 -10 0 -4 8 -8 18 -8 13 1 10 6 -13 25 -16
14 -37 32 -46 40 -8 8 -30 20 -47 26 -18 6 -32 14 -32 18 0 4 -26 16 -57 27
-32 10 -63 24 -70 30 -6 6 -60 16 -120 23 -59 7 -115 13 -123 14 -8 1 -31 1
-50 0z"/>
<path d="M5052 7266 c7 -8 16 -12 21 -9 11 7 -2 23 -19 23 -12 0 -12 -2 -2
-14z"/>
<path d="M7465 7268 c-2 -7 -8 -76 -14 -153 -12 -162 -35 -262 -90 -386 -30
-66 -36 -89 -25 -89 8 0 14 4 14 9 0 5 43 53 95 106 156 159 190 210 194 288
2 37 -1 47 -13 47 -9 0 -16 7 -16 15 0 8 -9 20 -20 27 -11 7 -20 19 -20 26 0
16 -81 122 -93 122 -4 0 -9 -6 -12 -12z"/>
<path d="M3860 7189 c-85 -6 -211 -8 -280 -5 -121 5 -264 -6 -305 -24 -11 -4
-60 -16 -110 -25 -49 -9 -92 -20 -95 -24 -3 -4 -42 -18 -87 -31 -46 -12 -83
-26 -83 -29 0 -4 -42 -15 -92 -25 -51 -10 -100 -20 -108 -24 -23 -9 -38 -11
-120 -17 -83 -6 -156 -23 -146 -33 8 -7 -83 -29 -159 -39 -38 -5 -45 -8 -30
-14 17 -7 16 -8 -7 -8 -16 -1 -28 4 -28 9 0 6 -5 10 -11 10 -5 0 -7 -4 -4 -10
4 -6 -9 -11 -32 -12 -66 -3 -72 -3 -79 -11 -4 -4 -25 -7 -46 -7 -21 0 -38 -3
-38 -7 0 -5 -21 -9 -47 -10 -46 -1 -129 -11 -278 -34 -38 -5 -76 -11 -82 -11
-7 -1 -13 -6 -13 -13 0 -12 -75 -35 -114 -35 -23 0 -23 -2 -14 -37 5 -21 12
-48 15 -60 8 -32 54 -47 124 -40 52 6 89 20 224 82 17 8 55 19 85 26 30 7 57
15 60 19 10 14 147 38 220 39 40 1 76 5 80 9 3 4 49 16 103 26 55 10 111 24
125 31 15 7 53 19 85 26 31 7 57 15 57 19 0 4 33 12 73 19 39 7 86 19 103 27
30 15 144 17 144 2 0 -3 20 -6 45 -6 25 0 43 3 40 8 -9 15 84 20 324 16 143
-3 247 -9 250 -14 3 -6 37 -10 74 -11 37 0 71 -2 75 -5 4 -2 57 -5 117 -7 113
-2 206 -15 216 -30 5 -9 72 -25 146 -36 24 -3 40 -9 38 -13 -3 -4 6 -11 19
-14 13 -3 26 -13 30 -21 11 -31 -3 -40 -65 -41 -40 -1 -64 -6 -69 -15 -10 -15
6 -39 26 -39 7 0 17 -6 21 -14 11 -19 49 -37 65 -31 8 3 31 -8 52 -24 20 -16
50 -33 67 -36 16 -4 29 -10 29 -15 0 -4 17 -16 37 -25 20 -10 48 -28 62 -41
14 -13 28 -24 32 -24 15 0 98 -88 110 -117 8 -18 20 -33 27 -33 7 0 16 -8 19
-17 11 -31 46 -73 60 -73 7 0 17 -10 22 -23 5 -13 16 -29 25 -36 9 -7 16 -19
16 -25 0 -6 9 -17 20 -24 11 -7 20 -17 20 -24 0 -6 11 -26 25 -44 14 -18 25
-40 25 -49 0 -23 31 -31 45 -11 12 15 14 14 26 -14 8 -16 20 -30 26 -30 16 0
17 -16 3 -25 -6 -4 -8 -10 -5 -15 3 -5 0 -18 -7 -29 -11 -18 -8 -25 22 -56 19
-19 31 -35 27 -35 -4 0 6 -13 23 -30 20 -20 30 -39 30 -60 0 -16 5 -30 10 -30
6 0 10 -10 10 -22 0 -19 64 -110 133 -189 8 -9 17 -32 21 -51 3 -19 15 -52 27
-74 15 -29 19 -50 14 -81 -6 -38 -4 -41 15 -36 17 5 20 1 20 -26 0 -17 5 -31
10 -31 6 0 10 -8 10 -19 0 -10 11 -29 24 -43 18 -17 26 -39 30 -78 9 -98 11
-105 24 -113 6 -4 12 -15 12 -22 0 -8 7 -15 15 -15 8 0 15 -4 15 -10 0 -5 -7
-10 -15 -10 -20 0 -19 -17 1 -28 14 -8 14 -12 0 -47 -9 -20 -16 -48 -16 -61 0
-13 -4 -24 -10 -24 -5 0 -10 -8 -10 -18 0 -10 -5 -23 -12 -30 -8 -8 -8 -12 -1
-12 6 0 13 -9 16 -19 3 -14 1 -18 -10 -14 -10 4 -9 -4 6 -28 24 -38 27 -69 9
-69 -9 0 -8 -4 2 -10 12 -7 12 -10 1 -10 -7 0 -11 -6 -7 -15 3 -8 1 -15 -4
-15 -6 0 -10 11 -10 24 0 13 -7 29 -15 36 -10 9 -15 9 -15 1 0 -6 -4 -11 -9
-11 -5 0 -7 9 -4 20 3 12 0 20 -6 20 -7 0 -9 -5 -5 -12 6 -10 5 -10 -8 -1 -8
7 -19 9 -23 5 -5 -4 -5 -2 -2 4 7 13 -13 24 -44 24 -11 0 -19 7 -19 16 0 8 -4
13 -9 9 -6 -3 -15 3 -21 12 -18 28 -2 -80 20 -146 11 -30 18 -57 15 -59 -3 -3
-5 0 -5 7 0 7 -4 10 -9 7 -12 -8 -6 -59 8 -64 6 -2 11 -18 11 -35 0 -30 4 -47
33 -142 9 -27 27 -106 41 -174 22 -107 26 -149 26 -309 0 -189 -12 -280 -56
-411 -15 -46 -11 -71 5 -30 18 47 32 74 51 104 11 17 23 37 27 45 4 8 15 21
25 28 10 7 18 20 18 28 0 8 5 14 11 14 5 0 17 15 25 33 20 43 37 71 54 92 8 9
19 25 25 35 5 11 44 73 85 140 41 66 80 129 86 140 6 11 18 28 26 37 8 10 18
26 21 36 4 9 11 17 17 17 5 0 10 6 10 14 0 8 8 21 18 28 9 7 23 24 30 38 32
62 44 80 53 80 5 0 9 5 9 11 0 6 12 23 28 38 15 15 43 45 63 67 20 21 51 50
69 64 18 14 51 42 73 63 49 47 61 53 120 62 26 4 47 11 47 16 0 5 11 9 24 9
14 0 28 5 32 11 5 9 -12 9 -62 4 -38 -5 -81 -8 -96 -8 -18 0 -25 -4 -21 -13 3
-8 0 -14 -6 -14 -17 0 -13 34 7 50 19 17 114 50 142 50 10 0 20 6 23 13 5 15
154 17 165 1 4 -5 37 -18 74 -28 37 -10 65 -22 62 -27 -3 -5 15 -9 39 -9 52 0
124 -21 191 -55 27 -14 55 -25 63 -25 7 0 13 -5 13 -10 0 -6 18 -17 40 -26 22
-9 40 -19 40 -23 0 -4 19 -12 43 -18 23 -7 53 -20 65 -31 12 -11 36 -25 52
-32 17 -7 30 -16 30 -20 0 -5 20 -16 45 -26 25 -9 45 -20 45 -24 0 -4 18 -15
40 -25 22 -10 40 -21 40 -25 0 -3 16 -14 35 -23 19 -9 35 -20 35 -25 0 -5 24
-19 53 -32 28 -13 56 -29 60 -37 4 -7 14 -13 21 -13 7 0 21 -8 32 -18 10 -10
34 -27 52 -37 17 -11 32 -23 32 -27 0 -5 16 -16 35 -25 19 -9 35 -20 35 -25 0
-4 13 -14 30 -23 16 -8 45 -30 63 -48 18 -18 47 -42 65 -52 18 -11 32 -23 32
-27 0 -4 14 -15 31 -23 16 -9 47 -33 68 -53 21 -20 57 -53 81 -72 23 -19 47
-40 53 -45 7 -6 28 -22 47 -35 19 -13 45 -34 58 -46 13 -11 41 -32 63 -45 21
-13 62 -45 91 -71 28 -27 55 -48 58 -48 6 0 26 -16 86 -71 12 -10 26 -19 31
-19 6 0 24 -13 41 -30 18 -16 36 -30 42 -30 5 0 10 -7 10 -15 0 -8 5 -15 10
-15 6 0 24 -13 42 -30 17 -16 34 -30 37 -30 4 0 23 -15 43 -32 100 -90 138
-122 154 -131 9 -5 36 -28 59 -51 24 -23 63 -57 88 -76 26 -19 46 -41 47 -47
0 -7 5 -13 10 -13 6 0 37 -26 69 -57 32 -32 66 -65 77 -74 10 -9 33 -31 50
-50 39 -43 118 -115 139 -126 15 -9 72 -58 163 -140 20 -18 44 -36 54 -39 10
-3 18 -12 18 -20 0 -8 6 -14 14 -14 7 0 24 -11 37 -24 13 -12 34 -28 47 -35
12 -7 21 -15 18 -19 -2 -4 7 -12 20 -19 23 -11 24 -10 24 23 0 25 -8 42 -26
59 -15 14 -21 25 -15 25 7 0 9 5 5 11 -4 8 -9 7 -14 -2 -6 -9 -12 -9 -25 4 -9
10 -19 17 -23 17 -4 0 -23 14 -42 30 -19 16 -41 30 -49 30 -7 0 -11 6 -8 14 4
10 1 13 -9 9 -7 -3 -15 0 -15 6 -3 26 -4 30 -13 38 -5 5 -6 3 -2 -5 4 -6 2
-12 -4 -12 -6 0 -10 8 -8 18 3 16 -30 52 -48 52 -4 0 1 -7 12 -15 18 -13 18
-14 -4 -8 -12 3 -43 25 -68 49 -25 24 -48 44 -53 44 -4 0 -21 15 -38 33 -53
55 -89 87 -101 87 -7 0 -12 4 -12 10 0 15 -176 185 -275 265 -20 17 -62 54
-92 83 -31 28 -60 52 -64 52 -5 0 -9 7 -9 15 0 8 -5 15 -11 15 -6 0 -16 6 -24
13 -7 6 -27 23 -45 37 -17 14 -43 35 -56 48 -14 12 -29 22 -34 22 -5 0 -20 11
-34 25 -14 14 -29 25 -33 25 -5 0 -16 9 -26 20 -10 12 -22 18 -27 15 -6 -3
-10 2 -11 12 0 11 -3 13 -6 5 -6 -16 -33 3 -33 23 0 7 -15 20 -32 29 -18 8
-29 16 -24 16 12 0 -40 40 -53 40 -13 0 -67 50 -64 61 2 4 -6 11 -17 14 -11 4
-20 11 -20 16 0 5 -7 9 -15 9 -8 0 -15 4 -15 10 0 5 -16 17 -35 26 -19 9 -35
22 -35 29 0 8 -8 16 -18 19 -9 3 -33 19 -52 36 -19 16 -42 35 -50 42 -9 7 -29
22 -45 32 -17 11 -34 25 -38 33 -4 7 -14 13 -22 13 -7 0 -16 9 -20 19 -3 10
-19 24 -36 31 -16 7 -34 21 -40 31 -5 11 -15 19 -22 19 -7 0 -28 14 -47 30
-19 17 -43 33 -52 36 -10 3 -18 12 -18 20 0 8 -6 14 -13 14 -7 0 -26 12 -44
28 -48 43 -91 74 -122 89 -7 3 -25 17 -40 31 -14 14 -20 22 -12 17 9 -5 12 -4
8 3 -4 5 -17 8 -30 5 -14 -3 -18 -2 -10 4 9 6 2 13 -22 22 -20 7 -33 16 -30
21 8 13 -34 48 -66 55 -16 4 -29 12 -29 20 0 12 -44 31 -62 27 -5 -1 -8 5 -8
13 0 8 -5 15 -11 15 -5 0 -7 -4 -4 -10 3 -5 -1 -10 -9 -10 -9 0 -16 7 -16 15
0 8 -9 15 -21 15 -11 0 -17 4 -14 10 4 6 -8 10 -30 10 -20 0 -34 4 -31 9 6 8
-68 41 -92 41 -7 0 -10 5 -7 10 3 6 0 10 -7 10 -7 0 -41 13 -75 30 -52 25 -80
35 -114 39 -3 1 -16 10 -28 20 -13 11 -47 25 -77 32 -29 7 -51 15 -49 19 2 4
-24 15 -58 26 -34 10 -64 21 -67 25 -11 15 -161 32 -270 32 -124 -1 -243 -17
-248 -33 -5 -13 -62 -13 -62 0 0 20 -53 124 -58 112 -2 -7 6 -33 17 -57 24
-50 28 -99 9 -93 -7 3 -41 60 -76 128 -61 119 -63 126 -65 204 -2 77 0 83 27
114 16 17 35 32 41 32 11 0 47 93 65 168 6 24 5 32 -6 32 -18 0 -18 30 0 55
22 32 25 94 9 188 -8 49 -13 97 -10 107 10 40 -80 310 -134 400 -5 8 -12 22
-15 30 -3 8 -10 22 -15 30 -5 8 -18 33 -30 55 -44 87 -79 149 -88 154 -5 3
-31 33 -58 66 -44 55 -104 123 -160 182 -13 13 -23 28 -23 33 0 6 -3 10 -8 10
-4 0 -32 24 -64 53 -83 77 -111 100 -141 116 -15 8 -27 18 -27 22 0 5 -15 16
-32 25 -18 9 -35 20 -38 24 -3 3 -20 15 -39 26 -33 18 -116 90 -96 82 23 -8
110 -54 115 -59 3 -4 23 -16 45 -28 22 -11 35 -21 30 -21 -6 0 6 -10 25 -21
19 -12 39 -28 43 -35 4 -8 17 -14 27 -14 10 0 31 -11 46 -25 15 -14 30 -25 35
-25 4 0 45 -36 91 -80 46 -44 86 -80 90 -80 15 0 -15 48 -38 60 -13 7 -22 16
-21 21 3 10 -154 159 -167 159 -3 0 -21 15 -39 34 -19 18 -43 37 -55 40 -11 4
-23 13 -26 21 -3 8 -14 15 -25 15 -11 0 -37 16 -58 35 -21 19 -42 35 -46 35
-5 0 -6 4 -3 8 3 4 -17 17 -45 27 -27 11 -49 22 -49 26 0 4 -12 10 -27 14 -16
3 -48 17 -73 29 -25 12 -76 30 -115 41 -38 10 -72 22 -75 26 -3 4 -50 15 -105
25 -55 10 -102 21 -105 24 -3 4 -52 10 -110 14 -58 4 -121 8 -140 11 -96 10
-352 12 -490 4z m1597 -2681 c-3 -7 -5 -2 -5 12 0 14 2 19 5 13 2 -7 2 -19 0
-25z m760 10 c-3 -8 -6 -5 -6 6 -1 11 2 17 5 13 3 -3 4 -12 1 -19z m-730 -151
c12 -25 1 -58 -14 -43 -10 9 -13 66 -3 66 4 0 12 -11 17 -23z m8 -67 c3 -6 -1
-7 -9 -4 -18 7 -21 14 -7 14 6 0 13 -4 16 -10z"/>
<path d="M5260 7096 c0 -2 7 -7 16 -10 8 -3 12 -2 9 4 -6 10 -25 14 -25 6z"/>
<path d="M7201 6434 c0 -11 3 -14 6 -6 3 7 2 16 -1 19 -3 4 -6 -2 -5 -13z"/>
<path d="M7172 6402 c-6 -17 -15 -32 -21 -32 -5 0 -14 -12 -20 -27 -6 -16 -19
-40 -29 -54 -46 -70 -82 -136 -82 -154 0 -12 -5 -26 -10 -31 -6 -6 -13 -35
-16 -65 -5 -50 -4 -53 10 -35 9 11 16 28 16 38 0 10 4 18 8 18 5 0 17 19 28
43 10 23 21 44 25 47 7 6 60 115 63 133 4 15 13 42 33 89 8 20 13 42 11 49 -3
8 -10 -1 -16 -19z"/>
<path d="M2590 6140 c0 -5 18 -10 41 -10 24 0 38 4 34 10 -3 6 -22 10 -41 10
-19 0 -34 -4 -34 -10z"/>
<path d="M7570 5993 c0 -5 -21 -16 -46 -27 -25 -10 -43 -21 -40 -23 3 -3 -6
-15 -20 -27 -27 -24 -114 -161 -114 -181 0 -7 -7 -18 -15 -25 -8 -7 -15 -19
-15 -26 0 -7 -9 -30 -20 -50 -12 -20 -18 -39 -15 -42 3 -3 30 -5 59 -3 30 1
57 -2 60 -7 3 -6 30 -16 58 -22 29 -7 60 -18 68 -25 8 -6 36 -19 63 -29 26
-10 47 -21 47 -26 0 -4 14 -10 31 -14 18 -3 63 -22 100 -41 38 -19 76 -35 84
-35 8 0 15 -4 15 -9 0 -5 20 -17 45 -27 25 -9 45 -20 45 -25 0 -5 21 -18 47
-30 25 -12 53 -27 60 -34 7 -8 29 -19 48 -26 19 -7 35 -16 35 -21 0 -4 14 -15
31 -23 16 -9 40 -25 52 -36 47 -41 56 -48 91 -64 20 -10 36 -21 36 -26 0 -4
16 -16 36 -25 20 -9 38 -23 41 -31 3 -7 10 -13 17 -13 6 0 35 -23 65 -50 29
-28 57 -50 60 -50 4 0 20 -12 37 -27 75 -67 109 -93 122 -93 7 0 11 -4 8 -9
-4 -5 10 -19 29 -31 19 -12 35 -25 35 -29 0 -4 14 -15 30 -25 17 -10 50 -35
73 -57 23 -21 50 -41 60 -45 9 -3 17 -11 17 -17 0 -7 11 -19 24 -27 25 -15
174 -151 311 -285 122 -119 254 -235 268 -235 4 0 7 -4 7 -10 0 -9 33 -43 120
-120 31 -28 50 -52 50 -66 0 -33 10 -54 26 -54 8 0 18 -8 21 -17 4 -10 15 -24
25 -31 10 -7 18 -19 18 -26 0 -8 7 -19 15 -26 19 -16 20 -98 1 -122 -14 -20
-36 -24 -36 -8 0 6 -5 10 -11 10 -11 0 -10 -17 7 -97 8 -40 -15 -46 -39 -10
-16 22 -16 22 -16 1 -1 -12 6 -27 14 -34 19 -16 19 -63 0 -126 -17 -56 -19
-104 -6 -104 5 0 12 -8 14 -17 4 -16 6 -2 12 87 1 14 2 35 3 48 1 12 7 22 13
22 8 0 10 -15 6 -48 -3 -26 -1 -55 4 -63 6 -9 9 6 10 46 0 33 4 71 8 85 l8 25
6 -30 c3 -16 6 -50 6 -74 1 -24 3 -47 6 -49 3 -3 5 45 5 106 0 70 4 112 10
112 17 0 22 -24 29 -127 4 -70 10 -98 20 -101 14 -5 14 -3 -2 188 -1 16 3 25
13 25 10 0 17 -16 22 -50 5 -27 11 -66 15 -85 13 -66 21 130 22 570 l1 425
-25 27 c-13 14 -34 29 -45 33 -11 3 -20 12 -20 20 0 7 -11 20 -25 29 -14 9
-60 50 -102 91 -42 41 -80 75 -85 75 -4 0 -8 7 -8 15 0 9 -7 18 -15 21 -8 4
-15 10 -15 15 0 5 -47 56 -104 113 -57 58 -103 106 -101 108 2 2 -9 12 -26 23
-16 11 -29 26 -29 33 0 6 -4 12 -8 12 -12 0 -136 123 -134 133 1 4 -4 7 -12 7
-7 0 -31 18 -52 41 -22 22 -61 62 -88 87 -26 26 -56 55 -64 65 -9 9 -20 17
-24 17 -5 0 -23 15 -41 33 -19 17 -57 52 -86 77 -30 25 -75 66 -102 91 -26 25
-57 52 -67 60 -75 55 -104 79 -96 79 5 0 -9 9 -30 21 -21 11 -47 29 -59 40
-11 10 -27 19 -34 19 -7 0 -13 7 -13 15 0 9 -16 23 -35 32 -19 9 -35 20 -35
24 0 4 -20 15 -45 25 -25 9 -45 20 -45 24 0 4 -20 15 -45 24 -25 10 -45 21
-45 26 0 5 -25 16 -55 25 -30 8 -55 19 -55 23 0 5 -42 19 -92 32 -51 13 -96
27 -99 32 -3 5 -64 13 -135 18 -151 11 -202 18 -210 31 -6 11 -44 12 -44 2z"/>
<path d="M3955 5898 c11 -6 22 -14 25 -18 3 -4 21 -15 40 -25 19 -10 37 -21
40 -25 3 -4 20 -15 38 -24 17 -9 32 -20 32 -24 0 -5 16 -16 35 -25 19 -9 35
-21 35 -25 0 -5 16 -17 35 -28 19 -10 35 -21 35 -25 0 -3 16 -14 35 -25 19
-10 35 -24 35 -31 0 -7 3 -13 8 -13 4 0 21 -11 37 -25 74 -63 109 -93 146
-127 21 -21 39 -34 39 -30 0 4 -20 25 -45 47 -25 22 -65 58 -89 80 -47 43 -96
84 -147 125 -18 14 -40 33 -51 43 -10 9 -22 17 -27 17 -4 0 -20 11 -35 25 -15
14 -41 32 -58 41 -17 9 -40 25 -51 35 -12 10 -26 19 -33 19 -7 0 -19 6 -26 13
-16 16 -53 37 -65 37 -4 0 1 -6 12 -12z"/>
<path d="M8760 5837 c0 -16 82 -87 101 -87 37 0 14 27 -46 55 -22 11 -43 24
-47 29 -4 6 -8 7 -8 3z"/>
<path d="M9250 5657 c36 -36 71 -66 79 -67 8 0 12 -2 9 -5 -7 -8 170 -185 184
-185 10 0 -186 197 -269 270 -63 56 -64 50 -3 -13z"/>
<path d="M2985 5660 c-3 -5 -1 -10 4 -10 6 0 11 5 11 10 0 6 -2 10 -4 10 -3 0
-8 -4 -11 -10z"/>
<path d="M3153 5648 c15 -5 25 -14 21 -19 -3 -5 -1 -9 5 -9 5 0 13 5 16 10 3
6 16 10 28 11 41 1 -13 18 -58 18 -38 -1 -39 -1 -12 -11z"/>
<path d="M3266 5635 c3 -6 10 -12 17 -13 54 -7 172 -34 176 -40 7 -9 145 -42
174 -42 9 0 17 -4 17 -9 0 -5 16 -15 35 -22 37 -14 46 -33 20 -43 -8 -3 -15
-10 -15 -16 0 -5 7 -10 15 -10 8 0 15 5 15 11 0 17 31 43 38 33 4 -5 27 -18
52 -29 25 -11 51 -25 58 -32 7 -7 24 -16 38 -19 13 -4 28 -14 33 -23 5 -9 30
-22 55 -30 25 -7 44 -17 41 -21 -3 -4 2 -11 11 -14 24 -9 25 -8 7 14 -10 11
-23 20 -30 20 -7 0 -21 8 -32 19 -10 10 -37 27 -60 37 -22 10 -41 21 -41 24 0
3 -19 15 -42 25 -24 10 -49 24 -56 32 -7 7 -31 17 -52 23 -22 6 -40 14 -40 18
0 4 -27 16 -60 26 -33 11 -60 22 -60 26 0 4 -44 15 -97 25 -54 10 -100 21
-103 25 -9 13 -118 18 -114 5z"/>
<path d="M1524 5581 c3 -4 -34 -11 -82 -15 -129 -9 -262 -29 -262 -38 0 -4 -9
-8 -19 -8 -11 0 -23 -5 -27 -12 -7 -11 13 -10 229 8 42 4 77 11 77 15 0 5 12
9 26 9 49 0 234 33 234 41 0 5 -41 9 -91 9 -49 0 -88 -4 -85 -9z"/>
<path d="M9170 5481 c0 -19 114 -141 131 -141 5 0 9 -6 9 -14 0 -7 11 -21 23
-29 32 -21 87 -76 87 -88 0 -5 4 -9 8 -9 8 0 142 -128 142 -135 0 -4 200 -202
237 -235 15 -14 33 -27 40 -30 15 -6 84 -64 134 -112 33 -31 39 -33 39 -17 0
25 -25 51 -67 73 -18 9 -33 21 -33 26 0 5 -13 17 -30 27 -16 9 -30 22 -30 29
0 6 -11 16 -25 22 -14 6 -25 18 -25 27 0 8 -7 15 -15 15 -8 0 -15 5 -15 10 0
6 -7 10 -15 10 -8 0 -15 7 -15 15 0 8 -4 15 -10 15 -5 0 -26 16 -46 35 -19 19
-40 35 -45 35 -6 0 -8 4 -4 10 3 5 -8 16 -25 25 -16 8 -30 22 -30 30 0 9 -11
21 -25 27 -14 6 -25 17 -25 24 0 7 -10 20 -22 28 -12 9 -19 16 -16 16 4 0 -13
20 -37 44 -25 24 -45 48 -45 52 0 5 -16 20 -34 34 -19 14 -32 28 -29 32 2 5
-7 13 -21 20 -14 6 -26 17 -26 25 0 7 -4 13 -9 13 -5 0 -35 25 -66 55 -32 30
-60 55 -62 55 -1 0 -3 -9 -3 -19z"/>
<path d="M255 5450 c-19 -8 -19 -9 2 -9 12 -1 25 4 28 9 7 12 -2 12 -30 0z"/>
<path d="M149 5420 c-20 -16 -21 -19 -7 -20 9 0 20 5 23 10 3 6 15 10 26 10
11 0 17 5 14 10 -10 15 -31 12 -56 -10z"/>
<path d="M3490 5410 c0 -6 7 -10 15 -10 8 0 15 2 15 4 0 2 -7 6 -15 10 -8 3
-15 1 -15 -4z"/>
<path d="M4593 5402 c11 -11 16 -25 13 -31 -4 -5 -1 -13 5 -17 8 -4 9 -3 5 4
-4 7 -2 12 3 12 19 0 11 14 -17 34 l-27 20 18 -22z"/>
<path d="M2538 5404 c-4 -3 -52 -7 -109 -9 -56 -2 -105 -8 -108 -14 -8 -13
-122 -31 -224 -36 -44 -2 -82 -7 -86 -13 -5 -7 -225 -51 -278 -54 -7 -1 -13
-5 -13 -10 0 -4 -14 -8 -30 -8 -17 0 -45 -7 -62 -16 -17 -9 -41 -14 -55 -11
-13 2 -30 -2 -38 -9 -8 -8 -35 -15 -62 -17 -27 -2 -53 -6 -58 -9 -6 -3 -52 -9
-102 -13 -51 -4 -93 -11 -93 -15 0 -10 -66 -22 -128 -22 -26 0 -56 -5 -66 -11
-10 -5 -36 -9 -58 -9 -21 1 -38 -3 -38 -9 0 -5 -9 -9 -19 -9 -11 0 -23 -4 -26
-10 -3 -5 -26 -10 -50 -10 -24 0 -50 -6 -57 -14 -23 -23 -73 -29 -91 -12 -19
20 -43 21 -50 2 -5 -13 -20 -17 -137 -32 -40 -5 -59 -13 -73 -30 -19 -25 -51
-32 -62 -14 -4 6 -34 8 -78 4 -53 -5 -76 -11 -87 -25 -12 -15 -30 -19 -80 -20
-36 -1 -77 -8 -92 -15 -28 -14 -28 -16 -28 -114 l0 -99 33 5 c69 11 157 37
157 46 0 5 -5 6 -10 3 -6 -3 -10 -3 -10 1 0 11 34 33 53 34 9 0 17 7 17 15 0
9 6 12 15 9 8 -4 15 -1 15 4 0 6 8 11 18 12 49 2 118 13 127 21 14 11 58 8 67
-6 5 -6 8 -3 8 6 0 10 11 19 27 22 62 13 88 20 93 27 9 13 227 41 269 34 32
-5 42 -3 47 9 6 17 58 18 84 2 7 -4 15 -3 19 2 7 12 79 39 85 32 2 -2 7 -15
11 -28 5 -16 4 -21 -4 -17 -6 4 -11 2 -11 -4 0 -6 -8 -14 -17 -17 -9 -4 -25
-15 -36 -26 -15 -15 -16 -19 -5 -14 9 3 49 9 89 13 41 3 79 10 84 14 6 4 88
15 183 25 94 10 172 22 172 27 0 4 20 8 45 8 45 0 96 19 123 46 7 8 21 14 31
14 9 0 26 8 37 18 10 9 33 24 49 32 17 8 37 19 45 26 8 6 35 19 60 28 25 10
47 21 50 25 3 4 28 15 55 26 28 10 52 22 55 26 6 9 115 39 143 39 10 0 15 -4
12 -10 -3 -5 -14 -10 -24 -10 -9 0 -27 -13 -39 -30 -26 -34 -28 -44 -7 -36 8
3 15 1 15 -4 0 -12 53 -13 66 -1 23 22 256 51 292 36 30 -13 75 -13 121 -1 51
13 81 10 81 -7 0 -7 4 -6 10 3 6 10 10 11 10 3 0 -7 9 -13 20 -13 11 0 20 -7
20 -15 0 -8 5 -15 10 -15 6 0 10 6 10 14 0 8 11 14 28 14 61 1 112 15 113 31
0 14 1 14 7 1 4 -9 20 -15 40 -15 18 0 37 7 42 15 8 12 11 11 16 -7 7 -26 8
-27 36 -12 18 10 20 9 15 -5 -7 -17 2 -17 50 1 8 3 11 -3 8 -15 -3 -16 3 -22
28 -28 20 -4 33 -2 35 5 2 7 8 6 18 -3 7 -8 25 -13 39 -12 14 2 25 -1 25 -6 0
-12 42 1 53 16 6 7 7 4 3 -6 -4 -14 0 -18 19 -18 14 0 25 -4 25 -8 0 -15 68
-31 74 -18 3 6 5 4 5 -4 -1 -8 -1 -22 0 -30 1 -13 2 -13 12 0 8 12 12 12 16 2
4 -10 8 -9 19 5 7 10 14 13 14 6 0 -6 9 -9 20 -6 11 3 20 1 20 -5 0 -5 9 -12
21 -15 12 -3 18 -10 15 -15 -3 -5 10 -8 28 -6 27 2 35 -2 39 -17 3 -10 14 -19
24 -19 10 0 25 -9 33 -20 16 -22 45 -26 56 -9 4 8 0 9 -15 4 -15 -5 -21 -2
-21 10 0 8 -6 18 -14 21 -8 3 -16 15 -19 26 -3 11 -10 17 -16 14 -5 -4 -12 3
-16 14 -3 11 -15 20 -26 20 -10 0 -19 5 -19 10 0 6 -9 10 -20 10 -13 0 -20 7
-20 19 0 21 -66 71 -94 71 -14 0 -17 6 -14 24 5 24 4 25 -43 20 -27 -2 -50 0
-54 6 -3 5 -15 10 -26 10 -10 0 -19 6 -19 14 0 7 -6 19 -14 25 -12 10 -13 8
-9 -8 3 -12 1 -21 -6 -21 -6 0 -11 5 -11 10 0 6 -10 10 -22 10 -18 0 -20 2 -8
10 8 5 11 12 7 16 -4 4 -17 -1 -29 -12 -19 -17 -21 -17 -15 -2 5 15 1 16 -26
12 -24 -4 -28 -3 -17 5 11 8 -2 10 -48 7 -47 -3 -65 0 -69 10 -6 17 -40 29
-71 25 -20 -2 -23 1 -17 19 5 17 4 21 -6 17 -8 -2 -13 -9 -12 -15 3 -12 -44
-25 -58 -16 -6 3 -44 8 -86 11 -43 2 -81 10 -89 17 -9 9 -48 13 -131 13 -65 1
-125 4 -134 7 -8 4 -18 4 -21 0z m672 -182 c0 -13 -12 -22 -22 -16 -10 6 -1
24 13 24 5 0 9 -4 9 -8z m-945 -42 c3 -5 -1 -10 -9 -10 -9 0 -16 5 -16 10 0 6
4 10 9 10 6 0 13 -4 16 -10z m-591 -146 c25 -9 19 -24 -9 -24 -24 0 -32 10
-18 23 8 8 8 8 27 1z m-361 -62 c-13 -13 -17 -14 -21 -3 -4 11 -6 11 -13 0 -7
-11 -9 -11 -9 3 0 17 25 28 47 20 9 -3 8 -9 -4 -20z m-56 3 c0 -8 -6 -15 -13
-15 -8 0 -11 6 -8 15 4 8 9 15 13 15 4 0 8 -7 8 -15z"/>
<path d="M9538 5384 c-4 -3 14 -24 39 -47 24 -23 70 -66 101 -94 30 -29 59
-53 64 -53 4 0 8 -6 8 -13 0 -12 34 -47 45 -47 3 0 25 -19 49 -42 60 -59 106
-98 117 -98 5 0 9 -6 9 -13 0 -14 39 -41 47 -33 8 8 -113 120 -167 155 -14 9
-34 27 -45 41 -11 13 -31 34 -43 45 -52 44 -82 76 -82 85 0 6 -4 10 -8 10 -18
0 -123 96 -114 104 3 3 1 6 -5 6 -5 0 -12 -3 -15 -6z"/>
<path d="M4638 5353 c6 -2 9 -9 6 -15 -4 -5 17 -32 45 -59 28 -27 51 -50 51
-53 0 -2 18 -23 39 -47 22 -24 50 -57 64 -74 14 -16 28 -27 31 -24 3 3 -10 23
-29 43 -19 21 -35 40 -35 43 0 2 -23 27 -50 54 -28 28 -48 55 -44 60 3 5 0 8
-8 7 -7 -2 -12 2 -11 9 2 8 -4 10 -14 6 -10 -4 -14 -2 -10 4 8 12 -20 53 -36
52 -9 0 -8 -2 1 -6z"/>
<path d="M4107 5283 c26 -26 54 -37 47 -18 -3 7 -13 16 -22 19 -9 3 -23 9 -31
12 -7 4 -5 -2 6 -13z"/>
<path d="M3455 5270 c-3 -5 3 -10 14 -10 12 0 21 5 21 10 0 6 -6 10 -14 10 -8
0 -18 -4 -21 -10z"/>
<path d="M4195 5220 c3 -5 8 -10 11 -10 2 0 4 5 4 10 0 6 -5 10 -11 10 -5 0
-7 -4 -4 -10z"/>
<path d="M4237 5189 c7 -7 15 -10 18 -7 3 3 -2 9 -12 12 -14 6 -15 5 -6 -5z"/>
<path d="M3698 5133 c7 -3 16 -2 19 1 4 3 -2 6 -13 5 -11 0 -14 -3 -6 -6z"/>
<path d="M3808 5133 c7 -3 16 -2 19 1 4 3 -2 6 -13 5 -11 0 -14 -3 -6 -6z"/>
<path d="M3746 5115 c-3 -9 0 -15 9 -15 9 0 12 6 9 15 -4 8 -7 15 -9 15 -2 0
-5 -7 -9 -15z"/>
<path d="M3437 5109 c7 -7 15 -10 18 -7 3 3 -2 9 -12 12 -14 6 -15 5 -6 -5z"/>
<path d="M3845 5070 c3 -5 8 -10 11 -10 2 0 4 5 4 10 0 6 -5 10 -11 10 -5 0
-7 -4 -4 -10z"/>
<path d="M6078 5053 c-19 -22 -30 -63 -17 -63 11 0 43 69 36 76 -2 2 -11 -4
-19 -13z"/>
<path d="M4892 5044 c10 -10 20 -15 24 -12 3 4 -5 12 -18 18 -22 12 -22 12 -6
-6z"/>
<path d="M4420 5035 c6 -8 50 -54 97 -102 88 -90 116 -125 119 -150 2 -8 6
-18 10 -21 4 -4 4 1 1 11 -5 13 -3 17 5 14 7 -2 12 -11 12 -20 -1 -9 2 -15 6
-12 4 2 27 -18 52 -45 26 -28 44 -50 41 -50 -3 0 13 -21 34 -47 45 -54 103
-149 63 -103 -11 14 -33 43 -47 65 -41 62 -113 148 -112 133 0 -7 20 -40 44
-73 25 -33 54 -78 65 -100 11 -22 29 -53 40 -70 11 -16 22 -37 26 -45 3 -8 10
-23 15 -32 5 -10 9 -25 9 -33 0 -8 4 -15 8 -15 4 0 13 -12 19 -27 7 -16 17
-35 22 -43 12 -20 25 -53 23 -62 -1 -5 3 -8 8 -8 6 0 10 -13 10 -30 0 -16 9
-49 19 -72 30 -67 51 -190 59 -348 9 -168 22 -166 43 7 11 91 9 160 -6 273 -5
31 -4 32 5 11 20 -45 20 -15 0 55 -21 73 -67 192 -91 234 -4 8 -22 42 -40 75
-17 33 -37 67 -45 76 -8 8 -14 21 -14 27 0 6 -7 15 -16 20 -15 8 -33 35 -53
80 -6 12 -15 22 -21 22 -6 0 -15 11 -20 25 -5 14 -17 28 -25 31 -8 4 -15 11
-15 16 0 12 -191 198 -202 198 -5 0 -8 7 -8 15 0 8 -5 15 -11 15 -6 0 -38 27
-71 60 -54 55 -88 81 -58 45z m504 -598 c58 -98 69 -122 53 -108 -9 7 -17 19
-17 26 0 7 -7 19 -16 26 -9 7 -20 22 -25 34 -5 11 -16 30 -25 43 -13 17 -13
21 -3 17 8 -3 23 -20 33 -38z m106 -186 c0 -12 -6 -9 -20 9 -26 33 -26 48 0
25 11 -10 20 -25 20 -34z m35 -81 c9 -27 21 -52 26 -55 5 -4 9 -16 9 -28 -1
-16 -7 -9 -21 23 -11 25 -27 58 -35 73 -16 33 -18 51 -5 42 5 -3 17 -28 26
-55z"/>
<path d="M3940 5015 c0 -8 7 -15 15 -15 9 0 12 6 9 15 -4 8 -10 15 -15 15 -5
0 -9 -7 -9 -15z"/>
<path d="M4920 5006 c0 -2 8 -10 18 -17 15 -13 16 -12 3 4 -13 16 -21 21 -21
13z"/>
<path d="M6000 4963 c1 -31 18 -95 29 -106 8 -8 11 8 11 56 0 60 -2 67 -20 67
-12 0 -20 -7 -20 -17z"/>
<path d="M4007 4880 c18 -20 43 -27 43 -12 0 8 -43 32 -55 32 -3 0 3 -9 12
-20z"/>
<path d="M4110 4851 c0 -5 5 -13 10 -16 6 -3 10 -2 10 4 0 5 -4 13 -10 16 -5
3 -10 2 -10 -4z"/>
<path d="M4038 4843 c6 -2 12 -11 12 -19 0 -8 5 -14 12 -14 7 0 23 -12 35 -27
13 -14 23 -21 23 -15 0 6 -7 17 -15 26 -8 8 -15 19 -15 25 0 12 -33 31 -52 30
-10 0 -10 -2 0 -6z"/>
<path d="M1380 4820 c0 -5 5 -10 10 -10 6 0 10 5 10 10 0 6 -4 10 -10 10 -5 0
-10 -4 -10 -10z"/>
<path d="M4130 4800 c0 -5 5 -10 11 -10 5 0 7 5 4 10 -3 6 -8 10 -11 10 -2 0
-4 -4 -4 -10z"/>
<path d="M3400 4769 c0 -18 55 -43 71 -33 17 10 -11 42 -41 46 -23 4 -30 1
-30 -13z"/>
<path d="M4130 4765 c0 -8 15 -22 33 -31 32 -17 32 -16 15 3 -10 11 -18 25
-18 31 0 7 -7 12 -15 12 -8 0 -15 -7 -15 -15z"/>
<path d="M4210 4771 c0 -5 5 -13 10 -16 6 -3 10 -2 10 4 0 5 -4 13 -10 16 -5
3 -10 2 -10 -4z"/>
<path d="M1488 4753 c6 -2 18 -2 25 0 6 3 1 5 -13 5 -14 0 -19 -2 -12 -5z"/>
<path d="M1428 4743 c6 -2 18 -2 25 0 6 3 1 5 -13 5 -14 0 -19 -2 -12 -5z"/>
<path d="M2115 4745 c-11 -2 -95 -9 -187 -16 -93 -7 -168 -15 -168 -19 0 -4
-65 -15 -145 -25 -80 -10 -145 -21 -145 -25 0 -4 -64 -15 -142 -25 -79 -10
-145 -21 -148 -24 -3 -4 -63 -15 -135 -25 -71 -10 -132 -22 -135 -26 -3 -3
-74 -15 -157 -25 -84 -10 -153 -22 -153 -25 0 -4 -61 -15 -135 -25 -74 -10
-135 -22 -135 -26 0 -3 -63 -15 -140 -25 -77 -10 -140 -22 -140 -26 0 -4 -11
-8 -25 -8 l-25 0 0 -129 0 -128 25 5 c14 2 25 7 25 11 0 4 9 7 20 8 11 1 20
-2 20 -8 0 -14 32 -11 65 7 17 9 55 18 85 19 56 2 90 12 101 27 9 14 80 13 89
-1 5 -9 10 -10 14 -2 4 6 16 11 27 11 11 0 17 -4 14 -10 -3 -5 -2 -10 4 -10 5
0 11 6 14 13 3 9 61 12 243 13 131 0 244 2 249 3 23 7 45 0 45 -14 0 -10 12
-16 38 -17 66 -3 69 -3 86 -17 13 -11 16 -11 16 0 0 10 3 10 8 3 4 -6 15 -10
25 -8 13 2 17 -2 13 -12 -3 -8 1 -14 9 -14 8 0 15 5 15 10 0 6 7 10 16 10 8 0
13 -4 10 -9 -8 -12 39 -31 64 -26 17 3 20 0 16 -12 -5 -12 -1 -14 19 -9 20 5
23 3 18 -10 -8 -22 25 -48 43 -33 9 7 19 7 34 -1 11 -6 26 -8 32 -4 7 5 8 3 4
-5 -5 -8 0 -14 13 -18 11 -3 19 -9 16 -13 -2 -4 4 -15 15 -25 15 -14 20 -15
20 -4 0 11 2 11 10 -1 7 -11 10 -12 10 -2 0 10 3 10 15 -2 18 -17 20 -56 3
-56 -15 0 0 -15 15 -15 7 -1 16 4 20 10 5 6 7 4 4 -5 -2 -8 -10 -15 -18 -15
-7 0 -15 -9 -17 -20 -3 -16 -1 -17 7 -5 9 13 11 13 11 -2 0 -11 -8 -18 -20
-18 -11 0 -20 -3 -20 -7 0 -12 20 -39 20 -28 0 6 5 3 10 -5 9 -13 11 -13 21 0
8 12 9 9 4 -10 -10 -36 -25 -49 -25 -21 0 12 -4 20 -9 17 -5 -3 -12 2 -16 12
-6 16 -7 16 -16 -1 -6 -9 -8 -21 -4 -26 3 -5 1 -12 -5 -16 -5 -3 -10 0 -11 7
-1 23 -27 -56 -28 -84 -1 -16 4 -28 10 -28 7 0 9 9 6 23 -6 21 -6 21 8 3 8
-11 15 -23 15 -28 0 -4 7 -8 16 -8 8 0 12 5 9 10 -3 6 -1 10 4 10 6 0 11 -4
11 -10 0 -5 9 -10 20 -10 10 0 24 -8 29 -17 7 -12 10 -14 11 -4 0 9 4 10 13 3
6 -5 30 -12 51 -14 35 -3 41 0 46 22 4 14 12 24 19 22 6 -1 14 5 17 13 8 19
40 19 48 0 8 -22 -4 -47 -20 -41 -8 3 -14 -1 -14 -9 0 -8 -5 -15 -11 -15 -5 0
-8 4 -4 9 3 5 1 12 -5 16 -5 3 -10 -3 -10 -14 0 -15 9 -22 35 -27 19 -3 38
-10 40 -15 3 -4 13 -5 23 -2 9 3 14 2 10 -2 -5 -5 15 -17 44 -27 58 -20 88
-23 88 -8 0 6 4 10 10 10 5 0 7 -6 4 -13 -3 -8 1 -19 8 -25 11 -9 13 0 12 49
-2 32 2 59 7 59 5 0 10 -19 10 -42 1 -40 2 -41 9 -13 4 17 8 22 9 12 0 -10 6
-15 11 -12 6 3 10 2 10 -4 0 -5 12 -5 30 2 17 6 30 15 30 19 0 4 9 8 20 8 11
0 20 5 20 11 0 8 4 8 13 1 6 -5 27 -9 45 -7 19 1 36 -3 38 -10 3 -6 12 -12 20
-12 10 0 11 4 4 11 -17 17 -11 35 10 29 11 -3 20 -11 20 -19 0 -7 10 -19 22
-25 33 -18 46 -33 50 -60 l5 -24 10 24 10 25 6 -24 c3 -14 2 -27 -4 -31 -13
-8 11 -89 29 -96 18 -8 14 -33 -5 -33 -23 0 -38 11 -46 30 -3 8 -6 0 -6 -17
-1 -27 3 -33 19 -33 13 0 20 -7 20 -20 0 -13 9 -22 26 -26 29 -8 49 13 59 63
4 23 13 34 35 42 17 5 33 17 36 26 8 21 24 19 22 -2 -3 -41 3 -49 44 -60 30
-8 47 -8 55 -1 10 8 13 6 13 -8 1 -25 34 -64 54 -64 9 0 16 -7 16 -15 0 -8 4
-15 9 -15 5 0 14 -13 21 -30 7 -16 16 -30 20 -30 11 0 23 -41 21 -72 -2 -21 3
-27 21 -30 20 -3 23 -8 20 -45 -2 -26 1 -43 7 -43 6 0 11 7 11 15 0 8 4 15 9
15 8 0 18 -38 36 -135 3 -11 13 -30 25 -42 11 -12 20 -28 20 -36 0 -18 83
-103 88 -89 2 6 -1 19 -6 29 -5 10 -9 29 -8 43 1 19 6 24 21 22 11 -2 24 -5
30 -5 5 -1 15 -9 22 -17 10 -13 15 -12 40 6 15 12 30 30 31 40 6 30 32 44 81
44 68 0 74 -7 65 -79 -5 -44 -3 -61 5 -61 6 0 22 -7 35 -15 27 -18 25 -55 -4
-55 -35 0 -48 -39 -37 -110 11 -76 27 -120 43 -120 7 0 14 9 17 20 8 31 52 26
74 -7 23 -36 50 -63 63 -63 11 0 50 -73 50 -94 0 -9 14 -18 35 -22 19 -3 35
-11 35 -17 0 -9 -29 -95 -35 -105 -1 -1 -10 0 -19 4 -11 4 -15 13 -11 25 4 11
-2 26 -14 38 -10 10 -16 23 -13 27 4 4 2 4 -4 1 -6 -4 -33 8 -60 25 -49 32
-107 58 -131 58 -7 0 -13 -8 -13 -17 0 -25 24 -91 38 -105 7 -7 12 -19 12 -27
0 -9 9 -27 20 -41 11 -14 20 -31 20 -38 0 -6 9 -29 20 -49 11 -21 20 -46 20
-55 0 -10 4 -26 9 -36 25 -46 84 -270 107 -407 16 -95 23 -379 11 -430 -3 -11
-11 -49 -18 -85 -15 -83 -48 -176 -65 -191 -8 -6 -14 -17 -14 -24 0 -6 -9 -20
-20 -30 -11 -10 -17 -21 -14 -26 2 -5 -4 -14 -16 -21 -11 -7 -20 -18 -20 -25
0 -7 -9 -17 -20 -23 -11 -6 -20 -17 -20 -25 0 -8 -4 -15 -10 -15 -5 0 -22 -11
-37 -25 -62 -56 -79 -71 -91 -87 -11 -14 -10 -16 8 -11 11 3 26 13 33 23 7 9
27 25 45 34 17 9 32 20 32 25 0 5 21 16 48 26 26 10 50 22 53 27 10 15 171 38
267 38 75 0 92 3 92 15 0 20 36 19 44 0 4 -13 9 -13 25 -3 14 8 23 9 33 1 7
-6 43 -14 79 -18 76 -8 99 5 99 58 0 45 24 75 69 87 32 8 42 17 55 50 10 25
25 44 41 50 14 5 25 14 25 20 0 5 10 9 23 9 12 0 31 2 42 4 11 3 25 6 31 6 7
1 14 19 16 42 3 34 1 40 -14 36 -9 -3 -18 -1 -20 3 -8 21 -46 19 -74 -5 -36
-31 -64 -41 -74 -25 -4 6 -11 10 -15 8 -5 -1 -9 5 -11 14 -1 10 9 21 26 28 15
6 30 20 33 31 3 11 14 19 25 19 27 0 92 68 85 89 -4 12 -2 13 4 3 10 -14 73
-13 73 1 0 4 5 5 10 2 6 -3 10 -1 10 5 0 6 5 8 10 5 6 -3 10 -1 10 5 0 6 4 9
9 5 5 -3 12 -1 16 5 8 13 52 13 60 0 3 -5 1 -10 -5 -10 -7 0 -10 -7 -6 -15 6
-17 -32 -30 -64 -22 -11 3 -20 1 -20 -5 0 -5 -4 -6 -10 -3 -5 3 -10 0 -11 -7
0 -7 -4 -34 -8 -61 -8 -46 -7 -47 18 -47 50 2 121 -13 121 -24 0 -6 5 -4 10 4
9 13 11 13 20 0 6 -10 10 -11 10 -2 0 24 18 12 29 -20 9 -25 8 -36 -3 -53 -20
-30 -1 -56 40 -57 37 -1 54 8 54 28 0 13 8 15 83 17 15 1 27 4 27 7 0 5 22 6
98 2 27 -2 32 -6 32 -27 0 -15 6 -25 15 -25 20 0 91 -38 106 -56 25 -30 -21
-42 -93 -25 -32 7 -43 5 -65 -12 -16 -12 -32 -27 -38 -34 -5 -6 -41 -14 -80
-17 -92 -6 -145 -16 -145 -27 0 -5 -7 -9 -16 -9 -25 0 -84 -31 -78 -41 3 -5 2
-9 -3 -8 -24 4 -33 -4 -33 -31 0 -20 -5 -30 -15 -30 -8 0 -15 7 -15 15 0 8 -9
15 -20 15 -11 0 -28 4 -38 9 -70 34 -90 41 -114 39 -15 -1 -24 -6 -22 -10 3
-4 -1 -8 -9 -8 -7 0 -19 -11 -25 -25 -8 -18 -25 -28 -59 -37 -26 -6 -41 -14
-34 -16 7 -2 21 -12 30 -21 9 -9 42 -23 74 -30 31 -8 57 -18 57 -23 0 -4 21
-8 48 -8 26 -1 73 -7 104 -14 56 -14 58 -14 84 11 24 22 36 25 98 25 59 -1 74
2 86 18 9 12 27 19 45 19 97 -3 147 2 160 14 12 12 25 13 98 8 4 -1 7 -8 7
-16 0 -9 6 -18 14 -21 8 -3 16 -14 19 -25 3 -10 11 -19 19 -19 10 0 9 3 -2 10
-13 8 -13 10 1 10 10 0 20 -11 23 -25 4 -14 13 -25 22 -25 8 0 13 -4 10 -9 -6
-10 38 -58 119 -129 32 -28 55 -40 67 -36 9 3 27 0 39 -6 11 -7 45 -12 75 -12
43 -1 57 -5 65 -19 5 -11 17 -19 25 -19 12 0 15 -10 13 -44 -2 -24 2 -50 8
-58 6 -7 13 -30 17 -51 6 -33 9 -36 26 -27 11 6 20 14 20 18 0 4 18 6 39 4 50
-5 91 -49 114 -123 3 -9 20 -19 37 -23 18 -3 260 -6 538 -6 497 0 505 0 485
19 -11 10 -34 26 -51 35 -18 9 -32 20 -32 24 0 4 -17 16 -37 27 -21 11 -41 25
-45 31 -4 6 -21 17 -38 24 -16 7 -30 16 -30 21 0 5 -14 16 -32 25 -18 9 -38
23 -46 30 -7 8 -17 14 -21 14 -4 0 -16 8 -27 18 -10 10 -34 27 -53 38 -33 18
-48 29 -90 65 -10 9 -33 25 -51 35 -33 19 -42 26 -93 72 -14 12 -29 22 -33 22
-5 0 -22 11 -38 25 -16 14 -32 25 -35 25 -3 0 -22 14 -41 30 -19 16 -38 30
-41 30 -3 0 -26 16 -50 35 -24 19 -50 35 -56 35 -7 0 -13 4 -13 10 0 5 -17 17
-37 26 -21 10 -41 23 -45 30 -4 6 -21 17 -38 24 -16 7 -30 16 -30 21 0 4 -16
13 -35 20 -19 7 -35 17 -35 21 0 5 -20 18 -45 30 -25 12 -45 25 -45 28 0 4
-18 15 -40 25 -22 10 -40 21 -40 24 0 4 -17 15 -37 26 -21 11 -40 22 -43 26
-3 3 -21 14 -40 25 -19 10 -37 22 -40 25 -3 3 -20 14 -37 24 -18 11 -33 22
-33 26 0 4 -18 14 -40 23 -22 9 -40 19 -40 23 0 5 -23 19 -50 32 -28 14 -50
28 -50 32 0 5 -17 16 -37 26 -21 9 -45 25 -55 35 -10 10 -25 18 -33 18 -7 0
-18 6 -22 13 -4 8 -32 22 -60 32 -29 11 -53 22 -53 26 0 4 -19 12 -42 18 -51
13 -75 27 -65 38 5 4 11 3 15 -3 4 -6 17 -14 30 -18 12 -3 31 -9 43 -12 20 -6
20 -5 2 13 -23 22 -114 47 -145 38 -15 -4 -18 -3 -10 3 10 7 9 12 -5 24 -22
19 -87 33 -77 17 5 -8 -5 -10 -32 -5 -22 3 -98 9 -171 12 -115 6 -130 8 -118
21 8 8 19 11 25 8 5 -3 10 -1 10 5 0 6 -8 10 -17 8 -20 -4 -63 35 -63 58 0 9
11 14 34 14 19 0 37 6 39 13 4 9 6 9 6 0 1 -15 31 -18 31 -3 0 6 9 10 20 10
11 0 20 -4 20 -9 0 -9 64 -20 135 -23 17 -1 35 -6 42 -10 6 -5 14 -5 18 2 9
15 48 -8 41 -26 -3 -8 -1 -14 4 -14 6 0 10 8 10 18 0 11 3 13 8 6 8 -14 91
-38 100 -30 3 3 -9 9 -26 12 -18 4 -30 10 -27 14 5 8 -62 29 -109 34 -16 2
-33 11 -38 20 -11 20 -32 21 -24 1 7 -19 -8 -20 -23 -1 -9 11 -9 15 1 18 7 3
-2 7 -19 10 -34 5 -46 -7 -15 -15 13 -4 11 -5 -5 -6 -14 -1 -23 5 -23 14 0 12
-13 15 -59 15 -38 0 -61 5 -65 13 -5 9 -7 9 -12 0 -3 -7 -23 -13 -44 -13 -34
0 -38 3 -44 31 -3 17 -6 35 -6 40 0 5 27 9 61 9 45 0 58 -3 53 -12 -6 -10 -3
-9 8 0 18 15 108 7 108 -9 0 -5 9 -9 20 -9 26 0 25 8 -2 32 -20 17 -36 19
-137 17 -113 -2 -114 -2 -124 22 -21 50 -30 127 -19 146 4 6 25 13 47 16 l40
4 -46 1 -46 2 -6 63 c-11 99 -17 130 -36 167 -23 45 -31 91 -31 171 1 117 5
140 25 152 41 23 85 81 85 114 0 17 4 34 9 37 36 23 2 226 -56 335 -13 24 -23
50 -23 57 0 15 -46 101 -66 125 -8 8 -14 23 -14 31 0 9 -7 21 -15 28 -8 7 -15
18 -15 24 0 6 -9 17 -20 24 -11 7 -20 19 -20 27 0 8 -16 39 -35 69 -19 30 -35
62 -35 70 0 8 -7 19 -16 24 -15 8 -33 35 -53 80 -6 12 -14 22 -18 22 -5 0 -27
17 -49 38 -23 20 -56 48 -75 62 -18 14 -44 38 -58 53 -15 16 -59 63 -98 104
-40 41 -73 76 -73 79 0 4 -56 59 -128 125 -21 20 -57 45 -78 55 -21 10 -41 21
-44 24 -3 4 -36 18 -75 31 -38 13 -72 27 -75 30 -3 4 -43 15 -90 25 -47 10
-87 21 -90 25 -3 4 -42 15 -87 25 -46 9 -83 21 -83 25 0 4 -17 13 -37 19 -21
7 -42 18 -48 25 -5 6 -27 17 -48 24 -20 7 -44 19 -52 27 -8 9 -51 18 -107 24
-152 16 -193 22 -198 31 -3 4 -62 16 -130 26 -69 9 -128 21 -131 26 -4 5 -109
13 -235 17 l-229 8 285 -3 c281 -3 351 -7 400 -25 28 -10 157 -26 293 -36 48
-3 87 -9 87 -13 0 -3 30 -15 68 -25 37 -11 70 -23 73 -28 3 -5 15 -10 27 -13
12 -2 28 -7 35 -12 6 -4 18 -8 26 -10 8 -1 17 -6 20 -11 3 -5 39 -17 79 -27
39 -10 72 -22 72 -26 0 -4 12 -9 28 -12 72 -15 111 -27 157 -51 28 -14 56 -26
63 -26 6 0 12 -4 12 -10 0 -5 11 -12 25 -16 30 -7 103 -44 90 -44 -6 -1 6 -9
25 -18 37 -19 60 -36 118 -89 19 -18 39 -33 43 -33 5 0 9 -5 9 -10 0 -6 28
-36 61 -68 77 -71 131 -126 189 -192 25 -28 53 -59 63 -68 9 -9 17 -20 17 -25
0 -4 9 -17 20 -29 11 -12 20 -27 20 -34 0 -6 7 -14 15 -18 8 -3 15 -12 15 -19
0 -8 7 -20 15 -27 9 -7 23 -29 32 -49 9 -20 33 -63 53 -96 124 -205 195 -418
195 -591 0 -91 -3 -106 -29 -158 -16 -31 -40 -66 -55 -78 -17 -13 -22 -22 -13
-25 6 -3 9 -10 6 -16 -5 -8 -4 -9 4 -2 5 6 12 19 14 30 2 12 15 24 36 30 17 5
32 15 32 22 0 7 8 17 19 22 50 27 67 170 37 301 -9 36 -16 80 -16 97 0 18 -9
56 -20 85 -11 29 -20 61 -20 72 0 23 -27 107 -51 162 -11 23 -19 48 -19 57 0
9 -5 19 -10 22 -6 3 -15 26 -21 50 -6 25 -17 50 -25 56 -8 6 -14 20 -14 30 0
9 -6 24 -13 31 -7 7 -27 42 -45 78 -43 84 -55 106 -74 127 -8 10 -18 25 -22
33 -31 67 -180 270 -198 270 -4 0 -8 5 -8 10 0 17 -201 209 -253 243 -16 10
-36 26 -46 35 -31 30 -57 48 -92 68 -19 10 -38 24 -44 30 -5 6 -25 18 -42 25
-18 8 -33 17 -33 22 0 4 -18 14 -40 23 -22 9 -40 19 -40 23 0 4 -22 15 -50 26
-27 11 -50 22 -50 26 0 3 -27 14 -60 24 -33 10 -60 21 -60 25 0 4 -30 16 -67
26 -38 10 -71 22 -74 26 -3 5 -47 16 -97 25 -50 9 -89 20 -87 23 12 19 -539
50 -620 35z m615 -770 c-14 -17 -50 -20 -50 -4 0 5 5 7 10 4 6 -3 10 -1 10 4
0 6 10 11 21 11 18 0 19 -2 9 -15z m-990 -147 c0 -5 -4 -8 -10 -8 -5 0 -10 10
-10 23 0 18 2 19 10 7 5 -8 10 -18 10 -22z m-47 -14 c-7 -3 -9 -12 -6 -20 3
-8 0 -14 -6 -14 -12 0 -15 23 -4 33 3 4 11 7 17 6 7 0 6 -2 -1 -5z m-36 -54
c-2 -50 -11 -65 -19 -32 -5 17 9 82 17 82 3 0 4 -22 2 -50z m83 43 c0 -17 -19
-37 -27 -29 -4 5 -2 11 5 13 6 3 10 9 6 14 -3 5 0 9 5 9 6 0 11 -3 11 -7z m47
-25 c-3 -7 -5 -2 -5 12 0 14 2 19 5 13 2 -7 2 -19 0 -25z m1133 20 c0 -10 2
-10 9 0 6 10 10 8 14 -8 4 -15 2 -20 -8 -17 -9 4 -11 -1 -8 -14 3 -11 0 -20
-8 -21 -8 0 -18 -2 -24 -3 -64 -14 -78 -20 -85 -39 -8 -19 -9 -18 -9 7 -1 16
-5 26 -11 22 -5 -3 -10 -1 -10 4 0 6 -7 11 -15 11 -17 0 -20 16 -5 25 6 3 10
0 11 -7 0 -7 4 -3 9 10 7 17 17 22 45 22 22 0 34 4 30 10 -4 6 8 10 29 10 22
0 36 -5 36 -12z m-1320 -18 c-9 -16 -8 -18 5 -14 19 8 21 -26 3 -45 -11 -11
-10 -13 4 -8 9 3 22 -1 28 -9 20 -23 -16 -18 -40 6 -11 11 -24 20 -30 20 -13
0 -13 6 5 40 9 17 20 30 26 30 6 0 6 -7 -1 -20z m207 -32 c-3 -8 -6 -5 -6 6
-1 11 2 17 5 13 3 -3 4 -12 1 -19z m-97 -2 c0 -3 -4 -8 -10 -11 -5 -3 -10 -1
-10 4 0 6 5 11 10 11 6 0 10 -2 10 -4z m57 -28 c-3 -7 -5 -2 -5 12 0 14 2 19
5 13 2 -7 2 -19 0 -25z m1293 -38 c15 0 20 -7 20 -25 0 -27 -20 -30 -32 -5 -5
12 -7 12 -7 -3 -1 -17 36 -39 52 -30 11 6 9 -15 -3 -22 -5 -3 -6 -13 -3 -22 4
-11 3 -14 -5 -9 -8 5 -12 -1 -12 -16 0 -18 -2 -20 -10 -8 -6 10 -10 11 -10 3
0 -21 -36 -15 -51 8 -9 13 -20 18 -31 14 -15 -6 -17 -15 -12 -46 6 -34 4 -40
-17 -47 -20 -8 -27 -5 -41 20 -10 15 -18 37 -18 48 0 10 -4 22 -10 25 -17 11
-11 44 10 55 11 6 20 18 21 28 0 10 3 12 6 5 3 -10 9 -9 20 3 16 16 65 12 71
-7 10 -26 19 -3 15 39 l-4 47 16 -27 c9 -16 24 -28 35 -28z m-1370 36 c0 -3
-4 -8 -10 -11 -5 -3 -10 -1 -10 4 0 6 5 11 10 11 6 0 10 -2 10 -4z m240 -16
c0 -5 -2 -10 -4 -10 -3 0 -8 5 -11 10 -3 6 -1 10 4 10 6 0 11 -4 11 -10z
m-183 -16 c-3 -3 -12 -4 -19 -1 -8 3 -5 6 6 6 11 1 17 -2 13 -5z m173 -41 c0
-13 -4 -10 -15 11 -19 36 -19 41 0 22 8 -8 15 -23 15 -33z m23 12 c-7 -21 -13
-19 -13 6 0 11 4 18 10 14 5 -3 7 -12 3 -20z m94 -62 c-13 -13 -13 -10 -3 22
9 30 12 32 14 15 2 -13 -3 -29 -11 -37z m883 -230 c0 -7 -6 -10 -14 -7 -8 3
-12 13 -9 25 5 16 8 18 14 7 5 -7 9 -18 9 -25z m252 -430 c6 -24 -1 -43 -17
-43 -13 0 -27 45 -17 55 11 11 30 4 34 -12z m324 -420 c-11 -11 -19 6 -11 24
8 17 8 17 12 0 3 -10 2 -21 -1 -24z m720 -242 c-2 -40 -16 -52 -16 -14 0 25 6
43 15 43 2 0 2 -13 1 -29z m13 -161 c0 -14 -6 -4 -14 25 -8 28 -11 59 -7 70 4
15 8 8 13 -25 4 -25 8 -56 8 -70z m17 -78 c4 -27 2 -42 -5 -42 -6 0 -11 20
-11 47 0 55 8 53 16 -5z m756 -817 c12 -15 9 -55 -3 -55 -5 0 -7 -4 -4 -10 6
-10 -27 -15 -76 -12 -16 1 -29 -4 -33 -13 -9 -24 -63 -19 -71 6 -8 25 3 39 14
20 7 -10 10 -9 16 8 3 11 12 21 20 21 8 0 17 10 20 21 5 15 10 18 15 9 5 -9 9
-8 13 3 7 18 77 19 89 2z m-1012 -315 c0 -15 -7 -20 -25 -20 -41 0 -30 37 13
39 6 1 12 -8 12 -19z m-117 -101 c4 -16 3 -19 -5 -11 -6 6 -17 8 -24 5 -8 -3
-14 -1 -14 5 0 9 15 19 31 21 4 1 9 -9 12 -20z"/>
<path d="M4200 4720 c0 -11 4 -20 9 -20 5 0 17 -3 27 -7 11 -4 15 -3 10 5 -3
6 -2 13 3 16 5 3 12 -2 16 -11 3 -10 1 -19 -4 -21 -6 -2 -11 -8 -11 -13 0 -6
5 -7 10 -4 6 3 10 2 10 -4 0 -5 3 -17 7 -27 5 -13 3 -15 -8 -9 -12 8 -12 6 -1
-8 12 -14 16 -14 28 -2 18 17 18 25 0 25 -10 0 -16 14 -18 43 -2 35 -6 42 -23
40 -10 -1 -27 3 -37 8 -15 8 -18 6 -18 -11z"/>
<path d="M4675 4730 c3 -5 11 -10 16 -10 6 0 7 5 4 10 -3 6 -11 10 -16 10 -6
0 -7 -4 -4 -10z"/>
<path d="M4307 4670 c7 -27 19 -34 27 -15 3 8 -3 19 -13 25 -16 8 -18 7 -14
-10z"/>
<path d="M4342 4614 c1 -9 9 -19 16 -22 9 -3 13 2 10 14 -1 9 -9 19 -16 22 -9
3 -13 -2 -10 -14z"/>
<path d="M5380 4610 c0 -5 5 -10 11 -10 5 0 7 5 4 10 -3 6 -8 10 -11 10 -2 0
-4 -4 -4 -10z"/>
<path d="M4290 4565 c0 -8 11 -22 24 -31 14 -8 27 -21 29 -27 2 -7 2 -2 0 11
-3 20 -1 22 15 13 26 -14 32 -5 19 23 -11 23 -11 23 -27 3 -18 -21 -40 -16
-40 9 0 8 -4 14 -10 14 -5 0 -10 -7 -10 -15z"/>
<path d="M4448 4538 c7 -7 12 -20 12 -29 0 -14 -8 -17 -35 -15 -31 3 -35 1
-29 -17 4 -12 1 -23 -7 -28 -10 -6 -11 -9 -1 -9 6 0 12 -7 12 -15 0 -9 -6 -12
-16 -8 -14 5 -15 3 -4 -17 10 -18 14 -20 22 -9 7 10 8 8 3 -8 -4 -16 1 -28 19
-44 15 -13 26 -27 26 -33 0 -5 -6 -2 -13 9 -13 17 -14 17 -19 -3 -4 -12 0 -26
8 -33 15 -12 19 -39 6 -39 -4 0 -13 5 -20 12 -7 7 -12 8 -12 3 0 -6 -5 -3 -11
5 -7 11 -9 -3 -7 -50 2 -48 0 -64 -9 -62 -11 2 -18 -17 -14 -40 8 -57 8 -78
-1 -78 -5 0 -8 6 -5 14 6 16 -11 36 -31 36 -10 0 -13 -7 -9 -21 6 -22 -1 -49
-12 -49 -4 0 -5 19 -3 41 3 27 1 39 -6 35 -6 -3 -12 2 -14 11 -3 10 -4 -12 -4
-49 0 -38 2 -68 5 -68 3 0 20 -26 36 -58 17 -31 32 -59 35 -62 3 -3 26 -48 52
-100 41 -84 69 -154 109 -270 6 -19 18 -51 25 -70 27 -72 63 -256 84 -438 24
-203 -21 -446 -107 -580 -49 -78 -137 -160 -178 -168 -19 -3 -36 -12 -39 -19
-3 -10 18 -12 102 -7 59 2 109 9 110 13 5 11 112 12 112 1 0 -4 36 -13 80 -20
43 -6 98 -20 122 -30 24 -11 64 -25 91 -32 26 -7 47 -16 47 -21 0 -9 67 -25
88 -21 6 2 12 -2 12 -8 0 -5 7 -10 15 -10 8 0 15 -4 15 -8 0 -4 25 -16 55 -27
30 -10 55 -22 55 -27 0 -4 11 -8 24 -8 13 0 27 -6 30 -12 5 -10 7 -10 12 0 5
10 9 8 18 -8 6 -13 33 -31 61 -42 28 -11 52 -24 53 -29 2 -5 8 -9 13 -9 6 0 7
5 4 10 -6 9 7 14 30 11 6 -1 2 5 -7 12 -10 8 -18 25 -18 38 0 14 -7 35 -16 48
-16 22 -15 23 2 19 11 -2 20 -13 22 -26 4 -23 10 -26 29 -14 9 6 10 17 4 40
-7 24 -6 32 3 32 21 0 27 -12 13 -29 -10 -14 -10 -14 3 -4 21 16 100 5 100
-14 0 -8 5 -11 13 -8 6 4 4 0 -6 -8 -17 -14 -16 -16 12 -22 17 -3 33 -15 36
-25 3 -11 15 -22 26 -25 10 -4 19 -10 19 -14 0 -3 14 -15 31 -25 17 -10 28
-24 25 -31 -5 -14 49 -45 78 -45 9 0 16 -4 16 -10 0 -24 45 -50 87 -50 36 0
51 -8 41 -22 -7 -11 27 -48 41 -46 10 2 25 -3 34 -11 26 -21 21 5 -5 29 l-22
20 27 0 c20 0 27 -5 27 -20 0 -25 16 -26 23 -2 2 11 14 21 25 24 18 5 20 2 18
-31 -1 -25 -7 -37 -19 -39 -9 -2 -17 2 -17 8 0 6 -4 8 -10 5 -14 -9 -12 -45 2
-43 7 2 19 -12 27 -29 15 -35 31 -43 31 -18 0 25 17 17 25 -12 7 -28 40 -63
60 -63 19 0 46 -36 40 -53 -4 -8 -1 -18 5 -22 6 -3 10 -3 9 2 -3 20 2 23 16 9
9 -8 22 -13 30 -10 8 4 15 1 15 -5 0 -6 7 -11 15 -11 8 0 15 -9 15 -21 0 -15
5 -20 23 -17 17 2 26 -5 37 -29 8 -18 24 -36 34 -39 11 -4 31 -17 45 -30 14
-13 35 -24 47 -24 12 0 27 -7 34 -15 7 -8 18 -15 25 -15 7 0 25 -10 41 -22 15
-12 33 -23 40 -24 27 -4 84 -37 84 -49 0 -16 22 -25 61 -25 17 0 32 -6 35 -15
4 -8 12 -15 19 -15 8 0 30 -16 51 -35 20 -19 43 -35 50 -35 15 0 104 -60 104
-70 0 -4 18 -15 40 -25 22 -10 40 -22 40 -27 0 -5 16 -16 35 -24 19 -8 35 -19
35 -24 0 -5 16 -16 35 -25 20 -8 43 -21 51 -30 9 -8 21 -15 27 -15 7 0 32 -19
57 -43 25 -23 59 -47 75 -52 17 -6 34 -20 40 -32 9 -22 44 -43 69 -43 8 0 20
-10 28 -23 25 -37 81 -87 98 -87 23 0 60 -37 60 -61 0 -11 7 -22 15 -25 8 -4
15 -15 15 -25 0 -10 3 -18 8 -18 26 4 43 -4 57 -29 12 -19 26 -29 47 -30 17
-1 36 -6 42 -10 6 -4 15 -7 21 -7 5 0 18 -17 28 -37 9 -21 22 -38 29 -38 6 0
26 -11 44 -25 18 -14 39 -25 48 -25 18 0 97 -75 88 -84 -3 -4 0 -4 9 -1 9 3
33 -10 59 -32 l44 -38 218 -3 219 -3 -7 53 c-3 29 -12 76 -20 103 -22 76 -59
481 -47 512 3 6 11 9 19 6 9 -3 14 2 14 15 0 30 27 49 51 34 10 -7 26 -12 34
-12 9 0 18 -7 22 -15 3 -9 21 -22 39 -30 19 -8 34 -19 34 -24 0 -6 7 -11 15
-11 8 0 15 -4 15 -10 0 -5 6 -10 13 -10 13 0 48 -26 105 -77 20 -18 41 -33 47
-33 5 0 21 -12 34 -25 13 -14 29 -25 37 -25 8 0 14 -6 14 -14 0 -7 14 -19 30
-26 17 -7 35 -21 40 -31 6 -9 26 -23 45 -29 19 -6 35 -18 35 -26 0 -8 6 -14
14 -14 8 0 29 -12 46 -27 18 -16 47 -40 65 -55 18 -16 38 -28 44 -28 6 0 11
-6 11 -13 0 -7 16 -21 35 -31 19 -11 35 -23 35 -28 0 -4 6 -8 13 -8 8 0 27
-13 43 -30 16 -16 35 -30 42 -30 6 0 12 -4 12 -10 0 -5 5 -10 10 -10 6 0 19
-9 30 -20 18 -18 33 -20 145 -20 l125 0 0 117 0 118 -64 60 c-35 33 -92 85
-126 115 -34 30 -82 73 -106 95 -24 22 -64 58 -89 80 -26 22 -68 60 -95 85
-46 43 -110 100 -194 172 -21 18 -69 62 -107 98 -38 36 -87 81 -109 100 -23
19 -63 55 -89 80 -27 25 -63 56 -81 70 -17 14 -47 39 -65 55 -19 17 -48 41
-66 55 -17 14 -43 35 -57 48 -14 12 -28 22 -31 22 -4 0 -23 15 -43 33 -48 42
-58 50 -93 73 -17 10 -39 27 -49 36 -11 10 -25 18 -31 18 -7 0 -21 11 -31 25
-10 14 -22 25 -27 25 -9 0 -77 48 -92 65 -5 7 -25 19 -42 29 -18 9 -33 20 -33
24 0 4 -18 16 -40 26 -22 11 -40 23 -40 27 0 4 -15 16 -33 27 -34 20 -59 39
-105 80 -14 12 -28 22 -31 22 -3 0 -24 16 -45 35 -22 19 -44 35 -48 35 -5 0
-6 5 -3 10 3 6 2 10 -3 10 -4 0 -24 14 -42 30 -18 17 -36 30 -39 30 -4 0 -35
27 -71 60 -36 33 -70 60 -77 60 -7 0 -13 6 -13 13 0 8 -11 20 -25 27 -13 7
-22 17 -19 22 3 4 0 8 -6 8 -7 0 -26 15 -44 32 -32 32 -67 63 -140 123 -19 17
-57 51 -83 77 -27 27 -52 48 -57 48 -5 0 -19 10 -32 22 -22 22 -42 39 -113 96
-19 15 -42 35 -52 44 -10 9 -32 24 -48 33 -17 8 -31 20 -31 25 0 5 -8 11 -18
14 -10 3 -42 28 -71 56 -29 27 -68 55 -87 62 -19 6 -34 15 -34 18 0 4 -18 15
-40 25 -22 10 -40 21 -40 25 0 4 -24 17 -52 31 -29 13 -61 32 -70 42 -10 9
-25 17 -33 17 -9 0 -18 7 -21 15 -3 7 -26 22 -50 31 -24 9 -44 20 -44 24 0 4
-19 15 -42 26 -24 10 -49 24 -55 31 -7 6 -29 17 -48 23 -19 6 -35 15 -35 20 0
5 -31 16 -70 26 -38 10 -70 21 -70 25 0 4 -28 10 -62 14 -35 3 -76 8 -93 10
-40 5 -157 -12 -164 -23 -3 -5 -20 -13 -37 -16 -33 -7 -63 -36 -96 -92 -11
-19 -25 -34 -31 -34 -6 0 -8 -3 -5 -6 3 -3 -14 -25 -38 -48 -24 -24 -44 -48
-44 -54 0 -6 -9 -13 -19 -17 -11 -3 -22 -12 -25 -20 -3 -10 -16 -12 -43 -9
-70 10 -78 13 -116 49 -20 19 -42 35 -47 35 -6 0 -10 6 -10 14 0 8 -16 20 -35
26 -19 6 -35 15 -35 20 0 4 -11 11 -25 14 -25 6 -95 69 -95 85 0 4 -10 18 -22
32 -12 13 -30 34 -41 46 -11 12 -22 37 -26 55 l-7 33 -19 -55 c-10 -30 -31
-80 -48 -110 -16 -30 -43 -80 -59 -110 -16 -30 -34 -61 -41 -68 -13 -17 -32
-49 -46 -77 -5 -12 -16 -27 -25 -34 -14 -12 -16 -9 -16 27 0 23 4 43 9 47 11
6 29 87 37 165 5 52 14 82 14 47 0 -10 5 -17 11 -17 8 0 9 12 4 38 -4 20 -7
54 -6 74 2 43 -15 59 -28 26 l-8 -23 -7 23 c-7 21 -9 21 -19 7 -9 -12 -11 2
-9 65 3 75 2 82 -17 87 -12 3 -21 13 -21 22 -1 9 -7 27 -15 41 -14 25 -14 25
-15 3 0 -28 -16 -30 -30 -3 -13 24 -5 41 15 33 10 -3 15 1 15 15 0 11 2 27 5
34 4 9 -4 19 -20 26 -16 8 -25 19 -25 34 1 22 1 22 15 4 11 -15 16 -16 20 -5
14 39 9 89 -9 89 -8 0 -16 7 -20 15 -3 8 -1 15 4 15 15 0 11 32 -6 55 -13 17
-16 18 -24 5 -7 -11 -10 -5 -10 23 0 42 5 45 30 17 17 -20 18 -20 23 12 5 37
-8 82 -22 74 -13 -8 -33 19 -40 57 -4 19 -15 36 -28 42 -23 10 -36 60 -22 85
5 10 8 11 9 3 0 -17 20 -17 20 0 0 8 -10 22 -22 33 -12 10 -18 13 -14 7 4 -7
3 -13 -3 -13 -15 0 -23 18 -11 25 13 8 13 25 -1 25 -5 0 -7 -5 -3 -12 4 -6 -5
-3 -19 8 -15 10 -27 26 -27 34 0 20 -35 73 -46 68 -4 -2 -12 12 -16 30 -5 17
-13 32 -18 32 -13 0 -13 -17 0 -25 6 -3 10 -13 10 -21 0 -8 -4 -14 -10 -14 -5
0 -10 7 -10 15 0 8 -6 15 -14 15 -15 0 -23 32 -18 67 2 14 8 20 18 16 8 -3 14
1 14 11 0 10 8 16 21 16 16 0 19 4 13 23 -8 28 -23 47 -37 47 -7 0 -7 -4 1
-12z m-27 -342 c-18 -22 -29 -12 -23 20 4 23 6 24 20 10 13 -12 13 -18 3 -30z
m39 -26 c10 0 20 -49 10 -55 -7 -4 -31 64 -29 81 1 5 3 1 6 -8 2 -10 8 -18 13
-18z m127 -13 c3 -21 2 -21 -12 -3 -8 10 -12 23 -9 28 8 13 17 2 21 -25z
m-170 -119 c-3 -8 -6 -5 -6 6 -1 11 2 17 5 13 3 -3 4 -12 1 -19z m283 -274 c0
-8 -4 -12 -10 -9 -5 3 -10 13 -10 21 0 8 5 12 10 9 6 -3 10 -13 10 -21z m-10
-225 c0 -11 -4 -17 -10 -14 -5 3 -10 13 -10 21 0 8 5 14 10 14 6 0 10 -9 10
-21z m1 -205 c4 -10 8 -28 8 -39 0 -18 -1 -18 -11 3 -7 13 -17 21 -25 18 -8
-4 -13 3 -13 18 0 29 30 29 41 0z m79 -30 c0 -14 -4 -23 -9 -19 -5 3 -12 -3
-14 -12 -4 -14 -5 -13 -6 5 0 12 4 22 9 22 6 0 10 7 10 15 0 8 2 15 5 15 3 0
5 -12 5 -26z m-22 -279 c-3 -3 -9 2 -12 12 -6 14 -5 15 5 6 7 -7 10 -15 7 -18z
m-23 -24 c-7 -23 -25 -29 -25 -8 0 14 21 39 28 33 2 -3 1 -14 -3 -25z m62 -13
c-3 -8 -6 -5 -6 6 -1 11 2 17 5 13 3 -3 4 -12 1 -19z m-20 -20 c-3 -7 -5 -2
-5 12 0 14 2 19 5 13 2 -7 2 -19 0 -25z m344 -4 c24 -8 61 -17 82 -19 20 -2
44 -11 52 -19 9 -8 32 -18 53 -22 20 -3 42 -12 47 -18 6 -7 36 -21 68 -31 31
-10 57 -21 57 -25 0 -4 21 -15 47 -25 27 -10 54 -24 60 -31 7 -7 18 -15 25
-17 10 -4 9 -8 -2 -16 -12 -8 -13 -12 -2 -23 11 -11 16 -10 25 3 18 24 57 34
57 15 0 -18 30 -28 92 -30 63 -3 82 -20 49 -47 -14 -11 -21 -25 -17 -35 7 -18
26 -10 26 11 0 19 32 27 75 19 23 -4 35 -12 35 -23 0 -14 2 -14 10 -1 7 11 10
11 10 2 0 -7 4 -11 9 -7 5 3 12 1 16 -5 3 -5 17 -7 30 -4 20 5 25 1 31 -20 6
-25 7 -25 20 -9 12 16 13 16 14 1 0 -10 12 -19 32 -24 18 -3 43 -18 55 -33 21
-24 23 -24 24 -6 1 17 2 17 6 3 2 -10 11 -18 19 -18 8 0 14 -6 13 -12 -3 -27
2 -33 30 -34 37 -1 85 -46 68 -63 -9 -10 -6 -11 15 -6 23 6 29 3 37 -18 7 -18
15 -24 29 -20 21 5 31 -5 37 -37 3 -15 -3 -24 -20 -30 -26 -10 -34 -39 -12
-41 6 -1 21 -2 32 -3 13 -1 19 -7 17 -18 -3 -20 14 -25 21 -5 2 7 8 8 13 3 5
-5 4 -11 -3 -13 -7 -3 -13 -17 -13 -32 0 -25 3 -27 35 -23 34 4 50 22 20 22
-8 0 -15 7 -15 15 0 8 6 15 14 15 8 0 16 3 19 8 2 4 2 1 1 -5 -2 -7 6 -17 16
-23 14 -7 20 -7 20 0 0 5 -5 10 -12 10 -6 0 -9 2 -6 5 12 12 58 -15 58 -34 0
-11 4 -22 9 -25 5 -3 11 -14 14 -25 3 -14 1 -18 -9 -14 -8 3 -14 0 -14 -7 0
-10 -3 -10 -15 0 -12 10 -15 10 -15 -1 0 -23 14 -37 45 -49 21 -8 26 -13 16
-19 -9 -6 -11 -16 -6 -32 7 -21 6 -22 -9 -10 -9 7 -16 22 -16 32 0 16 -5 18
-27 13 -16 -4 -32 -12 -36 -18 -5 -6 -5 -1 -2 12 8 30 -3 28 -31 -5 -14 -16
-24 -22 -24 -14 0 10 -3 11 -14 2 -13 -11 -46 -5 -46 8 0 4 11 14 25 21 19 10
22 16 14 27 -15 18 -29 16 -29 -3 0 -11 -5 -14 -16 -10 -12 5 -14 1 -9 -15 4
-11 2 -26 -4 -33 -12 -14 12 -57 25 -44 4 4 2 13 -4 20 -8 10 9 13 81 14 51 1
84 0 75 -3 -22 -6 -24 -39 -2 -47 23 -9 24 -8 25 17 0 12 3 16 6 10 8 -21 51
-15 58 7 7 23 11 24 70 8 46 -13 60 -28 25 -28 -11 0 -20 5 -20 10 0 6 -7 10
-15 10 -13 0 -19 -16 -17 -41 1 -3 -23 -4 -52 -1 -39 3 -56 0 -68 -12 -21 -20
-24 -20 -50 4 -24 22 -48 26 -64 10 -7 -7 -19 -8 -37 -1 -15 6 -27 7 -27 2 0
-5 5 -11 11 -13 6 -2 13 -16 14 -31 2 -16 9 -35 16 -44 12 -14 10 -15 -18 -9
-18 4 -34 3 -38 -3 -11 -20 -25 -11 -25 15 0 14 4 23 8 20 16 -9 31 10 25 32
-6 24 -38 30 -46 10 -3 -9 -10 -8 -26 6 -31 28 -26 36 19 36 22 0 40 5 40 10
0 6 -10 10 -22 10 -13 0 -33 3 -44 6 -18 5 -22 0 -28 -31 -5 -27 -3 -42 8 -54
9 -10 16 -23 16 -29 0 -14 -28 -42 -43 -42 -8 0 -8 3 1 8 7 5 10 16 6 25 -7
20 -50 23 -57 5 -4 -10 -8 -9 -16 2 -10 13 -11 13 -11 0 -1 -13 -2 -12 -10 1
-6 11 -5 25 3 43 13 28 27 34 27 12 0 -7 11 -16 25 -18 29 -6 32 7 8 34 -15
17 -15 18 10 18 18 0 27 5 27 16 0 14 -7 16 -40 11 -22 -3 -56 -1 -77 3 -42
10 -63 -1 -63 -31 0 -22 -19 -25 -44 -6 -19 14 -29 68 -15 78 5 3 -8 5 -28 5
-20 0 -39 6 -41 12 -3 9 -15 10 -38 6 -30 -5 -34 -4 -34 15 0 11 6 21 14 21 8
0 16 6 19 13 4 10 7 10 18 0 19 -19 28 -16 22 7 -6 24 -53 28 -53 5 0 -10 -10
-15 -29 -15 -24 0 -35 8 -54 41 -22 36 -25 38 -30 19 -6 -25 -30 -22 -35 3 -3
12 9 20 42 29 25 7 46 17 46 24 0 6 13 14 29 17 37 8 63 55 51 94 -8 27 -8 27
-9 -9 -1 -34 -3 -36 -33 -35 -17 1 -33 8 -36 15 -3 9 3 11 22 6 20 -5 26 -2
26 10 0 15 -26 22 -72 18 -10 -1 -18 3 -18 8 0 6 9 10 20 10 17 0 18 3 8 25
-12 27 -34 28 -32 2 1 -9 -2 -15 -6 -12 -4 3 -14 -3 -21 -12 -10 -12 -10 -14
-1 -9 6 4 12 2 12 -4 0 -6 -10 -8 -25 -4 -18 4 -27 1 -31 -10 -9 -23 -47 -21
-42 2 2 11 11 16 24 14 23 -3 38 26 24 47 -9 15 -40 3 -40 -16 0 -12 -7 -14
-27 -8 -16 3 -29 11 -31 16 -5 13 -40 11 -45 -3 -3 -9 -11 -6 -24 10 -11 12
-25 22 -31 22 -6 0 -16 8 -21 18 -6 9 -11 11 -11 5 0 -20 -60 -17 -60 3 0 11
-6 14 -20 9 -16 -5 -20 -2 -20 19 0 30 -17 34 -36 9 -13 -17 -15 -17 -28 0
-16 20 -32 22 -39 5 -4 -9 -8 -10 -14 -2 -4 6 -16 13 -25 17 -11 4 -15 13 -11
26 3 12 1 21 -6 21 -6 0 -11 -7 -11 -15 0 -11 -11 -15 -36 -15 -28 0 -37 5
-41 20 -4 14 -11 19 -23 15 -20 -6 -36 10 -20 20 5 3 10 11 10 16 0 6 -11 -1
-24 -15 -26 -29 -41 -34 -32 -11 4 10 -1 15 -14 15 -11 0 -20 5 -20 10 0 6 -7
10 -15 10 -8 0 -15 -7 -15 -15 0 -8 -7 -15 -16 -15 -12 0 -15 7 -12 25 4 21 1
25 -18 25 -13 0 -24 -6 -25 -12 0 -9 -2 -9 -5 -2 -3 6 -15 9 -29 7 -16 -4 -27
1 -37 16 -13 21 -34 28 -40 13 -1 -5 -16 -12 -33 -15 -16 -3 -24 -4 -17 -1 22
10 12 24 -18 24 -16 0 -30 5 -30 10 0 10 13 14 43 11 9 -1 17 4 17 13 0 12
-10 16 -35 16 l-35 0 20 35 c11 20 20 42 20 49 0 25 31 75 50 81 11 4 20 12
20 20 0 20 138 105 171 105 9 0 36 -7 60 -16z m84 -444 c3 -6 -1 -7 -9 -4 -18
7 -21 14 -7 14 6 0 13 -4 16 -10z m1200 -110 c3 -5 2 -10 -4 -10 -5 0 -13 5
-16 10 -3 6 -2 10 4 10 5 0 13 -4 16 -10z m75 -62 c0 -13 -23 -5 -28 10 -2 7
2 10 12 6 9 -3 16 -11 16 -16z m180 -28 c0 -5 -4 -10 -10 -10 -5 0 -10 5 -10
10 0 6 5 10 10 10 6 0 10 -4 10 -10z m-760 -30 c0 -13 -11 -13 -30 0 -12 8
-11 10 8 10 12 0 22 -4 22 -10z m819 -120 c12 17 24 9 16 -11 -8 -20 -65 -23
-65 -3 0 8 5 12 10 9 6 -3 10 0 10 7 0 9 3 9 10 -2 9 -13 11 -13 19 0z m105
-36 c9 -22 -3 -32 -14 -14 -12 19 -12 30 -1 30 5 0 12 -7 15 -16z m-871 -100
c33 -10 18 -32 -25 -36 -47 -5 -78 5 -78 27 0 24 37 27 103 9z m997 -115 c0
-5 -4 -9 -10 -9 -5 0 -10 7 -10 16 0 8 5 12 10 9 6 -3 10 -10 10 -16z m48 -42
c2 -10 -3 -17 -12 -17 -9 0 -16 2 -16 4 0 2 -3 12 -6 21 -5 13 -2 16 12 13 10
-2 20 -11 22 -21z m-467 1 c1 -7 3 -28 5 -45 3 -23 0 -33 -10 -33 -21 0 -27
28 -8 40 10 6 13 13 7 17 -14 11 -17 33 -5 33 6 0 11 -6 11 -12z m-448 -35
c-3 -8 -2 -13 3 -12 19 3 34 -1 34 -11 0 -15 -42 -50 -61 -50 -10 0 -19 -5
-21 -12 -3 -8 -12 -5 -28 10 l-24 22 28 0 c37 0 56 21 56 62 0 23 3 29 9 19 5
-8 7 -20 4 -28z m737 7 c0 -5 -6 -10 -14 -10 -8 0 -18 5 -21 10 -3 6 3 10 14
10 12 0 21 -4 21 -10z m-622 -31 c0 -18 -4 -29 -11 -26 -15 5 -17 57 -2 57 7
0 12 -14 13 -31z m478 8 c10 3 14 -3 14 -20 0 -22 -4 -25 -27 -23 -16 2 -34 4
-40 5 -7 0 -13 8 -13 16 0 18 32 37 44 25 5 -5 15 -6 22 -3z m-226 -47 c0 -5
-2 -10 -4 -10 -3 0 -8 5 -11 10 -3 6 -1 10 4 10 6 0 11 -4 11 -10z m-66 -15
c-4 -8 -12 -15 -20 -15 -8 0 -14 7 -14 15 0 8 9 15 20 15 13 0 18 -5 14 -15z"/>
<path d="M5320 2856 c0 -9 7 -16 16 -16 9 0 14 5 12 12 -6 18 -28 21 -28 4z"/>
<path d="M5750 2650 c0 -5 5 -10 10 -10 6 0 10 5 10 10 0 6 -4 10 -10 10 -5 0
-10 -4 -10 -10z"/>
<path d="M5880 2630 c0 -5 5 -10 10 -10 6 0 10 5 10 10 0 6 -4 10 -10 10 -5 0
-10 -4 -10 -10z"/>
<path d="M5270 2601 c0 -5 9 -7 20 -4 11 3 20 7 20 9 0 2 -9 4 -20 4 -11 0
-20 -4 -20 -9z"/>
<path d="M5221 2574 c0 -11 3 -14 6 -6 3 7 2 16 -1 19 -3 4 -6 -2 -5 -13z"/>
<path d="M5243 2552 c-7 -4 -9 -13 -4 -21 6 -10 10 -9 15 5 8 20 4 25 -11 16z"/>
<path d="M5690 2536 c0 -14 29 -31 38 -22 2 3 2 12 -1 21 -8 19 -37 20 -37 1z"/>
<path d="M6038 2529 c12 -31 43 -39 35 -9 -3 11 -8 18 -11 15 -3 -2 -11 0 -19
6 -11 10 -12 7 -5 -12z"/>
<path d="M5343 2525 c-9 -10 -10 -16 -2 -21 6 -3 15 0 20 7 18 29 4 40 -18 14z"/>
<path d="M5981 2526 c-10 -12 -8 -16 8 -21 12 -3 21 -14 22 -23 0 -9 3 -12 5
-6 3 6 -2 23 -9 37 -12 23 -16 25 -26 13z"/>
<path d="M5580 2498 c0 -12 38 -10 45 2 4 6 -5 9 -19 8 -15 -1 -26 -6 -26 -10z"/>
<path d="M5658 2503 c6 -2 18 -2 25 0 6 3 1 5 -13 5 -14 0 -19 -2 -12 -5z"/>
<path d="M5470 2480 c0 -5 7 -10 15 -10 8 0 15 5 15 10 0 6 -7 10 -15 10 -8 0
-15 -4 -15 -10z"/>
<path d="M5904 2472 c-26 -21 -38 -61 -19 -68 7 -3 16 -16 19 -29 5 -21 11
-24 35 -19 16 3 38 1 50 -6 46 -24 68 32 31 80 l-20 25 0 -27 c0 -35 -15 -36
-37 -1 -13 19 -14 28 -5 31 6 2 12 10 12 18 0 19 -40 17 -66 -4z"/>
<path d="M5648 2453 c7 -3 16 -2 19 1 4 3 -2 6 -13 5 -11 0 -14 -3 -6 -6z"/>
<path d="M5615 2434 c9 -9 19 -13 23 -10 3 4 0 11 -8 16 -24 15 -33 11 -15 -6z"/>
<path d="M6036 2435 c4 -8 12 -15 20 -15 8 0 14 7 14 15 0 8 -9 15 -20 15 -13
0 -18 -5 -14 -15z"/>
<path d="M5688 2403 c6 -2 18 -2 25 0 6 3 1 5 -13 5 -14 0 -19 -2 -12 -5z"/>
<path d="M6335 2360 c-8 -14 9 -34 23 -29 7 3 6 11 -3 22 -9 13 -15 15 -20 7z"/>
<path d="M5976 2225 c4 -8 8 -15 10 -15 2 0 4 7 4 15 0 8 -4 15 -10 15 -5 0
-7 -7 -4 -15z"/>
<path d="M6365 2220 c3 -5 1 -10 -6 -10 -10 0 -10 -3 -2 -11 6 -6 16 -8 22 -5
17 11 13 36 -5 36 -8 0 -12 -4 -9 -10z"/>
<path d="M6291 2174 c0 -11 3 -14 6 -6 3 7 2 16 -1 19 -3 4 -6 -2 -5 -13z"/>
<path d="M6340 2171 c0 -6 5 -13 10 -16 6 -3 10 1 10 9 0 9 -4 16 -10 16 -5 0
-10 -4 -10 -9z"/>
<path d="M6087 2134 c-13 -13 -7 -24 14 -24 11 0 19 5 17 12 -5 14 -22 21 -31
12z"/>
<path d="M6260 2115 c0 -8 7 -15 15 -15 9 0 12 6 9 15 -4 8 -10 15 -15 15 -5
0 -9 -7 -9 -15z"/>
<path d="M6470 2110 c0 -11 6 -20 13 -20 6 0 22 -3 34 -6 21 -6 21 -4 10 20
-15 32 -57 37 -57 6z"/>
<path d="M6315 2100 c3 -5 12 -10 20 -10 8 0 17 5 20 10 4 6 -5 10 -20 10 -15
0 -24 -4 -20 -10z"/>
<path d="M6550 2075 c0 -8 2 -15 4 -15 2 0 11 -3 20 -6 12 -4 16 0 16 15 0 14
-6 21 -20 21 -11 0 -20 -7 -20 -15z"/>
<path d="M6150 2040 c0 -5 5 -10 10 -10 6 0 10 5 10 10 0 6 -4 10 -10 10 -5 0
-10 -4 -10 -10z"/>
<path d="M6180 2035 c-6 -8 -9 -19 -5 -25 10 -16 45 -12 45 5 0 8 5 15 10 15
6 0 10 -5 10 -11 0 -6 6 -9 13 -6 6 2 20 0 30 -5 14 -7 17 -4 17 18 0 20 -3
24 -13 16 -10 -8 -52 -10 -52 -2 0 1 -10 3 -21 6 -12 2 -27 -3 -34 -11z"/>
<path d="M6375 2040 c3 -5 13 -10 21 -10 8 0 14 5 14 10 0 6 -9 10 -21 10 -11
0 -17 -4 -14 -10z"/>
<path d="M4366 4495 c-3 -8 -1 -15 4 -15 6 0 10 7 10 15 0 8 -2 15 -4 15 -2 0
-6 -7 -10 -15z"/>
<path d="M4437 4423 c-4 -3 -7 -11 -7 -17 0 -6 5 -5 12 2 6 6 9 14 7 17 -3 3
-9 2 -12 -2z"/>
<path d="M4480 4413 c0 -17 6 -23 23 -23 16 0 18 3 8 9 -7 5 -17 15 -22 22 -6
10 -9 8 -9 -8z"/>
<path d="M4590 4411 c0 -5 7 -11 14 -14 10 -4 13 -1 9 9 -6 15 -23 19 -23 5z"/>
<path d="M6150 4180 c0 -6 11 -8 28 -4 39 10 40 14 4 14 -18 0 -32 -5 -32 -10z"/>
<path d="M81 4124 c-1 -15 -39 -25 -47 -13 -3 5 -12 9 -20 9 -10 0 -8 -7 8
-25 12 -14 27 -25 34 -25 18 0 36 27 31 47 -3 10 -5 13 -6 7z"/>
<path d="M6 4033 c-6 -14 -5 -15 5 -6 7 7 10 15 7 18 -3 3 -9 -2 -12 -12z"/>
<path d="M7710 3963 c8 -4 23 -17 33 -30 10 -12 23 -23 28 -23 5 0 17 -8 28
-17 10 -10 33 -29 51 -43 45 -35 90 -72 111 -92 10 -9 31 -24 47 -32 16 -8 32
-22 35 -31 4 -8 12 -15 19 -15 8 0 27 -12 44 -27 41 -38 90 -74 128 -96 22
-13 25 -14 11 -3 -50 41 -95 86 -85 86 5 0 10 5 10 12 0 6 -3 9 -6 6 -3 -3
-24 12 -47 33 -22 22 -51 42 -64 45 -13 4 -20 10 -18 15 3 4 -7 15 -22 23 -16
8 -46 30 -68 50 -22 20 -56 44 -77 53 -21 9 -38 21 -38 25 0 8 -49 32 -61 30
-4 -1 -15 8 -24 18 -10 11 -25 20 -34 19 -13 0 -14 -2 -1 -6z"/>
<path d="M248 3833 c57 -2 147 -2 200 0 53 1 7 3 -103 3 -110 0 -154 -2 -97
-3z"/>
<path d="M48 3823 c18 -2 45 -2 60 0 15 2 0 4 -33 4 -33 0 -45 -2 -27 -4z"/>
<path d="M673 3823 c15 -2 39 -2 55 0 15 2 2 4 -28 4 -30 0 -43 -2 -27 -4z"/>
<path d="M328 3813 c34 -2 90 -2 125 0 34 2 6 3 -63 3 -69 0 -97 -1 -62 -3z"/>
<path d="M773 3813 c9 -2 25 -2 35 0 9 3 1 5 -18 5 -19 0 -27 -2 -17 -5z"/>
<path d="M50 3798 c0 -4 14 -8 30 -8 17 0 30 4 30 9 0 5 -13 9 -30 9 -16 -1
-30 -5 -30 -10z"/>
<path d="M560 3801 c0 -4 42 -11 93 -15 122 -9 261 -28 267 -36 3 -4 59 -15
125 -25 66 -10 124 -21 129 -26 13 -11 46 -12 46 -1 0 5 -42 17 -92 26 -51 10
-98 22 -103 26 -6 5 -76 16 -155 25 -80 9 -153 21 -162 26 -22 11 -148 12
-148 0z"/>
<path d="M860 3799 c0 -5 10 -9 22 -9 12 0 18 3 14 7 -10 11 -36 12 -36 2z"/>
<path d="M63 3773 c-47 -3 -63 -8 -63 -18 0 -11 12 -15 45 -15 25 0 45 5 45
10 0 6 88 10 245 10 135 0 245 -4 245 -8 0 -5 48 -12 108 -15 126 -8 260 -25
283 -37 8 -4 65 -16 125 -26 60 -9 111 -21 114 -24 3 -4 50 -15 105 -24 55
-10 102 -21 103 -27 5 -12 52 -12 52 0 0 9 -55 24 -140 37 -22 4 -40 10 -40
13 0 4 -49 15 -110 26 -60 10 -110 21 -110 25 0 4 -24 10 -52 13 -108 11 -233
31 -238 38 -13 18 -513 33 -717 22z"/>
<path d="M4 3721 c-8 -9 -4 -81 5 -81 5 0 11 4 13 10 2 6 82 11 198 14 221 4
399 -2 381 -14 -7 -4 11 -8 41 -9 29 0 64 -3 78 -6 14 -3 66 -10 115 -16 50
-6 92 -14 95 -19 3 -4 43 -12 90 -18 47 -6 96 -14 110 -16 14 -2 45 -7 69 -10
24 -3 49 -10 55 -15 6 -4 31 -11 56 -15 25 -4 52 -9 60 -10 8 -2 42 -6 75 -11
33 -4 62 -11 65 -16 7 -10 139 -39 176 -39 13 0 24 -4 24 -8 0 -5 34 -16 75
-26 41 -10 75 -21 75 -25 0 -4 26 -14 58 -21 31 -8 77 -24 102 -36 25 -12 57
-26 73 -29 15 -4 27 -10 27 -14 0 -4 23 -13 51 -20 28 -7 53 -19 56 -27 3 -8
13 -14 23 -14 11 0 22 -4 25 -10 3 -5 14 -10 24 -10 10 0 30 -11 44 -24 15
-14 36 -27 47 -31 11 -3 20 -11 20 -16 0 -5 8 -9 18 -8 10 0 12 3 4 6 -6 2
-10 8 -7 12 2 5 -7 14 -20 21 -14 7 -25 17 -25 20 0 4 -20 15 -45 24 -25 10
-45 21 -45 25 0 3 -20 15 -45 26 -25 11 -45 23 -45 27 0 3 -23 14 -50 23 -28
9 -48 20 -45 24 2 5 -32 15 -77 24 -45 9 -84 20 -87 26 -4 5 -34 17 -69 27
-34 9 -62 20 -62 24 0 4 -36 16 -79 26 -44 10 -77 22 -75 26 3 5 -7 8 -22 8
-39 0 -94 22 -94 37 0 8 -12 13 -31 13 -17 0 -28 -4 -24 -10 3 -5 2 -10 -3
-10 -6 0 -13 7 -16 16 -4 11 -14 15 -31 12 -13 -3 -22 -2 -20 2 6 10 -83 34
-120 32 -24 -1 -26 1 -10 7 22 9 31 7 -130 32 -44 7 -83 16 -86 21 -4 7 -77
18 -129 20 -36 1 -105 20 -112 31 -6 9 -8 9 -8 0 0 -15 -27 -17 -32 -3 -1 5
-57 12 -123 16 -143 7 -655 11 -661 5z m351 -21 c3 -5 1 -10 -4 -10 -6 0 -11
5 -11 10 0 6 2 10 4 10 3 0 8 -4 11 -10z m225 0 c-20 -13 -190 -13 -190 0 0 6
41 10 103 10 69 0 97 -3 87 -10z"/>
<path d="M1470 3713 c0 -9 3 -13 7 -10 3 4 12 2 20 -4 14 -12 18 -1 5 16 -12
17 -32 16 -32 -2z"/>
<path d="M5122 3700 c-6 -19 -17 -69 -23 -110 -6 -41 -18 -90 -26 -108 -18
-38 -12 -101 12 -114 8 -5 15 -15 15 -22 0 -7 11 -18 23 -23 22 -10 23 -9 19
13 -2 13 -8 24 -13 24 -35 0 -39 138 -8 262 21 84 22 140 1 78z"/>
<path d="M4771 3694 c0 -11 3 -14 6 -6 3 7 2 16 -1 19 -3 4 -6 -2 -5 -13z"/>
<path d="M4790 3676 c0 -19 5 -38 10 -41 6 -4 10 10 10 34 0 23 -4 41 -10 41
-5 0 -10 -15 -10 -34z"/>
<path d="M4930 3696 c0 -8 5 -18 10 -21 6 -3 10 3 10 14 0 12 -4 21 -10 21 -5
0 -10 -6 -10 -14z"/>
<path d="M6204 3658 c-8 -13 -5 -14 39 -21 30 -5 35 -3 25 7 -18 17 -57 26
-64 14z"/>
<path d="M147 3628 l-147 -10 0 -94 0 -94 115 0 c78 0 115 4 115 11 0 8 6 7
17 -2 11 -10 14 -10 9 -1 -6 9 25 12 138 12 80 0 146 -4 146 -9 0 -4 30 -11
68 -15 37 -4 72 -7 79 -8 23 -2 45 -98 23 -98 -5 0 -10 -9 -10 -20 0 -11 -3
-20 -8 -20 -4 0 -20 -12 -35 -26 -19 -17 -32 -23 -40 -16 -11 9 -66 26 -77 24
-3 0 -48 -3 -99 -6 -52 -3 -97 -9 -100 -13 -11 -15 -60 -33 -75 -27 -8 3 -24
-4 -35 -15 -12 -12 -26 -21 -31 -21 -5 0 -10 -7 -10 -15 0 -9 -6 -12 -16 -8
-13 5 -13 7 -2 14 10 7 9 9 -4 9 -10 0 -18 6 -18 14 0 12 -14 14 -53 7 -4 0
-3 -10 3 -20 8 -16 7 -19 -7 -17 -9 2 -19 8 -21 14 -2 7 -8 12 -14 12 -6 0 -8
-6 -5 -14 4 -9 0 -13 -11 -11 -29 4 -42 -16 -41 -64 0 -25 3 -40 6 -33 2 6 9
12 14 12 6 0 7 -4 4 -10 -3 -5 -1 -10 4 -10 6 0 11 4 11 8 0 4 9 8 20 9 11 1
20 -2 20 -8 0 -5 5 -9 11 -9 5 0 8 4 5 8 -3 4 8 7 25 6 19 -1 29 3 29 12 0 8
7 14 16 14 8 0 12 -4 9 -10 -3 -5 0 -10 7 -11 34 -2 50 -9 67 -30 16 -19 21
-21 34 -11 10 9 16 9 19 2 2 -6 41 -12 93 -14 132 -6 300 -26 303 -37 2 -5 13
-9 24 -9 40 0 283 -43 288 -51 3 -4 28 -10 55 -13 89 -9 185 -28 185 -36 0 -4
18 -8 39 -8 42 -1 69 -11 95 -37 9 -10 42 -17 88 -21 74 -5 136 -27 145 -51 3
-7 11 -13 19 -13 8 0 14 -6 14 -14 0 -8 12 -22 28 -31 15 -9 43 -43 62 -76 19
-32 40 -59 46 -59 10 0 23 -21 26 -40 0 -3 9 -11 19 -18 11 -7 28 -31 39 -53
11 -21 25 -39 30 -39 5 0 13 -12 16 -27 10 -40 26 -60 47 -57 14 2 17 -6 17
-42 0 -36 3 -44 19 -44 30 0 43 -26 47 -89 1 -33 12 -80 24 -105 11 -25 23
-60 27 -76 3 -17 10 -33 14 -36 5 -3 9 -12 9 -21 0 -9 7 -25 16 -34 11 -13 19
-49 25 -116 9 -108 14 -143 31 -220 8 -37 8 -56 0 -65 -5 -7 -13 -29 -17 -49
-5 -29 -2 -45 17 -75 13 -22 30 -55 38 -74 7 -19 19 -42 27 -51 7 -8 13 -22
13 -29 0 -7 6 -21 14 -29 8 -9 24 -41 36 -71 13 -30 37 -86 55 -125 17 -38 38
-86 45 -105 7 -19 17 -39 22 -44 4 -6 8 -19 8 -31 0 -12 4 -25 9 -31 8 -8 46
-108 87 -229 9 -27 25 -68 35 -91 11 -23 19 -51 19 -63 0 -12 7 -38 15 -58 8
-19 15 -45 15 -57 0 -11 9 -48 19 -81 11 -33 26 -87 33 -120 l13 -60 1050 -2
c762 -1 1044 1 1028 9 -13 6 -23 15 -23 19 0 4 -16 13 -35 19 -19 6 -41 18
-49 25 -13 13 -34 25 -132 75 -27 14 -51 27 -54 30 -3 3 -25 14 -50 25 -25 11
-47 22 -50 25 -3 3 -27 14 -55 25 -27 10 -52 21 -55 25 -3 4 -32 15 -65 25
-33 10 -62 22 -65 27 -3 4 -39 14 -80 23 -40 8 -79 20 -86 26 -17 14 -247 15
-252 0 -2 -6 -10 -11 -17 -11 -23 0 -114 -33 -110 -40 2 -4 -18 -13 -45 -20
-31 -9 -50 -20 -53 -32 -7 -24 -34 -23 -47 2 -6 11 -8 20 -4 20 3 0 2 6 -4 13
-6 7 -9 27 -7 45 3 24 0 32 -11 32 -12 0 -12 4 3 25 10 13 23 25 30 25 6 0 20
11 31 25 11 13 31 30 46 36 15 7 25 18 22 25 -3 7 7 15 22 19 26 7 35 9 90 13
13 1 21 6 18 11 -6 10 -30 8 -110 -9 -60 -12 -105 -36 -159 -83 -27 -24 -33
-25 -36 -11 -2 10 5 24 15 31 11 7 27 20 37 28 10 9 36 23 57 31 22 9 40 20
40 24 0 16 101 32 255 40 88 5 162 9 165 9 2 1 -2 7 -9 14 -13 13 -301 19
-301 6 0 -3 -13 -5 -30 -3 -16 2 -30 -1 -30 -6 0 -6 -6 -10 -13 -10 -41 0
-118 -34 -158 -70 -24 -22 -46 -40 -49 -40 -3 0 -14 15 -24 34 -12 24 -16 43
-11 65 4 21 3 31 -5 31 -12 0 -8 49 5 70 6 9 2 9 -13 1 -30 -16 -34 -14 -31
17 2 15 0 33 -5 40 -4 7 -5 16 -1 20 4 4 10 1 12 -6 6 -17 32 16 33 41 0 16
-2 16 -22 -3 -41 -38 -54 -14 -15 28 18 21 19 24 4 19 -11 -4 -20 -1 -24 8 -4
12 -10 10 -29 -12 l-24 -28 0 28 c0 16 9 41 20 55 11 15 28 37 38 50 41 54
136 142 153 142 18 0 39 61 39 112 0 29 -5 80 -11 113 -6 33 -14 89 -18 125
-5 36 -16 92 -25 125 -10 33 -24 85 -33 115 -17 60 -48 148 -69 197 -8 17 -14
35 -14 40 0 4 -16 37 -35 73 -18 36 -44 85 -57 110 -29 57 -98 163 -112 172
-7 5 -7 8 -1 8 7 0 7 3 0 8 -13 9 -85 99 -85 106 0 3 -18 24 -40 46 -22 22
-40 45 -40 50 0 6 -4 10 -8 10 -4 0 -44 35 -89 78 -90 86 -126 117 -163 141
-14 9 -34 24 -44 33 -11 10 -28 20 -38 24 -10 3 -18 9 -18 13 0 4 -18 16 -40
26 -22 10 -40 21 -40 24 0 4 -20 15 -45 25 -25 11 -45 23 -45 28 0 4 -7 8 -15
8 -17 0 -97 38 -105 50 -3 4 -21 15 -40 25 -19 10 -37 21 -40 24 -3 4 -24 15
-47 25 -24 11 -43 23 -43 27 0 4 -17 13 -37 19 -21 7 -42 18 -48 24 -5 7 -17
16 -25 19 -8 4 0 4 19 1 19 -4 41 -13 48 -20 8 -7 33 -19 56 -26 23 -6 44 -15
47 -19 3 -3 21 -14 40 -24 19 -10 37 -21 40 -24 9 -11 52 -32 56 -28 12 11
-11 35 -49 52 -23 10 -44 21 -47 24 -3 3 -21 15 -40 25 -47 26 -71 50 -74 72
-3 22 -54 38 -73 23 -9 -8 -14 -7 -19 4 -3 9 -14 13 -27 11 -19 -4 -18 -3 3 6
19 9 21 13 11 20 -11 6 -10 9 5 13 14 3 11 6 -14 12 -18 4 -30 10 -27 13 7 7
-83 42 -107 42 -9 0 -18 4 -20 9 -1 6 -39 17 -83 26 -44 9 -82 20 -85 25 -3 4
-45 16 -95 25 -49 10 -92 21 -95 24 -3 4 -43 15 -90 25 -47 10 -89 21 -95 26
-12 9 -182 40 -220 40 -14 0 -24 4 -21 9 7 11 -14 15 -189 37 -77 10 -142 21
-145 25 -5 7 -145 20 -355 33 -27 2 -116 -1 -198 -6z m73 -28 c0 -5 -4 -10
-10 -10 -5 0 -10 5 -10 10 0 6 5 10 10 10 6 0 10 -4 10 -10z m30 0 c0 -5 -5
-10 -11 -10 -5 0 -7 5 -4 10 3 6 8 10 11 10 2 0 4 -4 4 -10z m253 -17 c-7 -2
-21 -2 -30 0 -10 3 -4 5 12 5 17 0 24 -2 18 -5z m114 -9 c-3 -3 -12 -4 -19 -1
-8 3 -5 6 6 6 11 1 17 -2 13 -5z m-74 -16 c70 -6 127 -15 127 -19 0 -4 30 -10
66 -14 36 -4 63 -9 61 -11 -8 -8 -222 19 -228 29 -4 6 -126 13 -280 17 l-274
7 200 1 c110 1 257 -3 328 -10z m160 5 c-7 -2 -21 -2 -30 0 -10 3 -4 5 12 5
17 0 24 -2 18 -5z m74 -9 c-3 -3 -12 -4 -19 -1 -8 3 -5 6 6 6 11 1 17 -2 13
-5z m93 -14 c0 -5 -4 -10 -10 -10 -5 0 -10 5 -10 10 0 6 5 10 10 10 6 0 10 -4
10 -10z m53 -17 c-7 -2 -19 -2 -25 0 -7 3 -2 5 12 5 14 0 19 -2 13 -5z m64 -9
c-3 -3 -12 -4 -19 -1 -8 3 -5 6 6 6 11 1 17 -2 13 -5z m-119 -11 c-10 -2 -26
-2 -35 0 -10 3 -2 5 17 5 19 0 27 -2 18 -5z m189 1 c-3 -3 -12 -4 -19 -1 -8 3
-5 6 6 6 11 1 17 -2 13 -5z m120 -30 c-3 -3 -12 -4 -19 -1 -8 3 -5 6 6 6 11 1
17 -2 13 -5z m173 -34 c0 -5 -7 -10 -15 -10 -8 0 -15 5 -15 10 0 6 7 10 15 10
8 0 15 -4 15 -10z m57 -16 c-3 -3 -12 -4 -19 -1 -8 3 -5 6 6 6 11 1 17 -2 13
-5z m56 -11 c-7 -2 -21 -2 -30 0 -10 3 -4 5 12 5 17 0 24 -2 18 -5z m111 -28
c2 -7 -6 -10 -25 -7 -16 2 -29 7 -29 11 0 12 49 8 54 -4z m266 -92 c0 -12 -2
-12 -15 1 -8 8 -15 17 -15 20 0 3 7 3 15 0 8 -4 15 -13 15 -21z m70 -2 c0 -5
11 -12 25 -15 14 -4 25 -11 25 -16 0 -6 -16 -4 -36 5 -20 8 -38 15 -40 15 -2
0 -4 5 -4 10 0 6 7 10 15 10 8 0 15 -4 15 -9z m1487 -2953 c-3 -8 -6 -5 -6 6
-1 11 2 17 5 13 3 -3 4 -12 1 -19z"/>
<path d="M4786 3581 c-4 -5 -2 -12 3 -15 5 -4 12 -2 15 3 4 5 2 12 -3 15 -5 4
-12 2 -15 -3z"/>
<path d="M4811 3514 c0 -11 3 -14 6 -6 3 7 2 16 -1 19 -3 4 -6 -2 -5 -13z"/>
<path d="M5868 3523 c6 -2 18 -2 25 0 6 3 1 5 -13 5 -14 0 -19 -2 -12 -5z"/>
<path d="M8280 3513 c14 -9 30 -24 37 -33 11 -13 12 -13 13 0 0 9 -13 23 -29
33 -38 22 -53 22 -21 0z"/>
<path d="M5788 3513 c6 -2 18 -2 25 0 6 3 1 5 -13 5 -14 0 -19 -2 -12 -5z"/>
<path d="M5720 3503 c-8 -4 -21 -12 -28 -20 -7 -7 -21 -13 -30 -13 -14 0 -15
2 -2 10 8 5 11 12 8 16 -4 3 -14 -1 -22 -9 -12 -12 -13 -17 -3 -21 6 -4 2 -4
-9 -2 -12 2 -28 0 -35 -5 -10 -6 -11 -9 -1 -9 6 0 12 -4 12 -10 0 -5 -7 -10
-15 -10 -8 0 -15 4 -15 10 0 5 -11 0 -24 -11 -14 -12 -22 -28 -19 -35 3 -8 0
-14 -6 -14 -6 0 -11 5 -11 11 0 6 -8 1 -19 -12 -10 -13 -16 -29 -14 -36 3 -7
1 -13 -5 -13 -9 0 -52 -63 -52 -77 0 -3 7 0 15 7 8 7 15 17 15 22 0 11 57 67
115 113 20 17 43 36 51 43 7 7 34 20 59 28 25 9 45 20 45 24 0 5 10 11 23 13
18 4 19 4 2 5 -11 0 -27 -2 -35 -5z m-140 -78 c0 -2 -10 -9 -22 -15 -22 -11
-22 -10 -4 4 21 17 26 19 26 11z m-60 -49 c0 -2 -8 -10 -17 -17 -16 -13 -17
-12 -4 4 13 16 21 21 21 13z"/>
<path d="M4855 3470 c-4 -7 0 -19 9 -28 14 -15 15 -14 11 7 -6 30 -11 35 -20
21z"/>
<path d="M8370 3440 c6 -11 14 -20 18 -20 5 0 17 -8 28 -18 23 -21 71 -52 80
-52 3 0 0 8 -7 17 -12 15 -12 16 3 10 12 -4 15 -2 12 8 -3 7 -12 16 -19 19 -9
3 -12 0 -8 -10 3 -7 2 -14 -2 -14 -10 0 -36 28 -34 37 3 19 -2 31 -16 37 -13
4 -14 2 -5 -14 14 -26 -1 -26 -30 0 -13 11 -25 20 -27 20 -2 0 1 -9 7 -20z"/>
<path d="M4860 3392 c0 -7 -7 -12 -15 -12 -8 0 -15 -9 -15 -20 0 -13 5 -18 15
-14 16 6 30 42 21 51 -3 4 -6 1 -6 -5z"/>
<path d="M8520 3366 c0 -3 9 -10 20 -16 11 -6 20 -8 20 -6 0 3 -9 10 -20 16
-11 6 -20 8 -20 6z"/>
<path d="M2018 3253 c7 -3 16 -2 19 1 4 3 -2 6 -13 5 -11 0 -14 -3 -6 -6z"/>
<path d="M5785 3249 c-4 -6 -4 -13 -1 -16 3 -4 6 -1 6 5 0 6 8 13 18 15 15 4
15 5 0 6 -9 0 -20 -4 -23 -10z"/>
<path d="M5750 3244 c0 -5 -13 -18 -30 -27 -56 -34 -180 -179 -180 -212 0 -11
54 17 82 43 72 67 96 91 92 95 -3 2 2 10 11 17 8 7 15 20 15 28 0 13 -3 12
-15 -4 -15 -19 -15 -19 -8 1 4 11 16 27 28 37 11 9 17 20 13 24 -5 4 -8 3 -8
-2z m-64 -95 c-8 -11 -25 -28 -38 -37 l-23 -16 20 25 c19 23 47 48 53 49 2 0
-3 -9 -12 -21z"/>
<path d="M10006 3195 c4 -8 8 -15 10 -15 2 0 4 7 4 15 0 8 -4 15 -10 15 -5 0
-7 -7 -4 -15z"/>
<path d="M9892 3180 c0 -14 2 -19 5 -12 2 6 2 18 0 25 -3 6 -5 1 -5 -13z"/>
<path d="M4481 3164 c0 -11 3 -14 6 -6 3 7 2 16 -1 19 -3 4 -6 -2 -5 -13z"/>
<path d="M5300 3172 c0 -4 9 -15 20 -25 22 -19 29 0 8 21 -14 14 -28 16 -28 4z"/>
<path d="M9956 3171 c-4 -7 -5 -15 -2 -18 9 -9 19 4 14 18 -4 11 -6 11 -12 0z"/>
<path d="M4902 3140 c0 -14 2 -19 5 -12 2 6 2 18 0 25 -3 6 -5 1 -5 -13z"/>
<path d="M9772 3135 c0 -16 2 -22 5 -12 2 9 2 23 0 30 -3 6 -5 -1 -5 -18z"/>
<path d="M9840 3129 c0 -11 5 -17 10 -14 6 3 10 13 10 21 0 8 -4 14 -10 14 -5
0 -10 -9 -10 -21z"/>
<path d="M5351 3113 c-1 -23 55 -93 76 -93 19 0 5 27 -18 33 -11 3 -19 14 -19
26 0 12 -6 21 -14 21 -8 0 -17 8 -19 18 -4 13 -5 12 -6 -5z"/>
<path d="M9290 3116 c0 -2 8 -10 18 -17 15 -13 16 -12 3 4 -13 16 -21 21 -21
13z"/>
<path d="M9900 3110 c0 -5 5 -10 10 -10 6 0 10 5 10 10 0 6 -4 10 -10 10 -5 0
-10 -4 -10 -10z"/>
<path d="M9807 3091 c-4 -17 -3 -21 5 -13 5 5 8 16 6 23 -3 8 -7 3 -11 -10z"/>
<path d="M9772 3080 c0 -14 2 -19 5 -12 2 6 2 18 0 25 -3 6 -5 1 -5 -13z"/>
<path d="M9980 3090 c0 -5 5 -10 10 -10 6 0 10 5 10 10 0 6 -4 10 -10 10 -5 0
-10 -4 -10 -10z"/>
<path d="M9930 3040 c0 -5 5 -10 10 -10 6 0 10 5 10 10 0 6 -4 10 -10 10 -5 0
-10 -4 -10 -10z"/>
<path d="M9821 3014 c0 -11 3 -14 6 -6 3 7 2 16 -1 19 -3 4 -6 -2 -5 -13z"/>
<path d="M2310 3010 c0 -6 6 -10 14 -10 8 0 16 -5 18 -11 2 -6 19 -17 38 -25
l33 -14 -24 22 c-30 28 -79 51 -79 38z"/>
<path d="M8970 2970 c0 -5 5 -10 10 -10 6 0 19 -9 30 -20 10 -10 21 -16 24
-12 2 4 -11 17 -30 30 -19 12 -34 18 -34 12z"/>
<path d="M6920 2866 c0 -3 9 -10 20 -16 11 -6 20 -8 20 -6 0 3 -9 10 -20 16
-11 6 -20 8 -20 6z"/>
<path d="M9840 2836 c0 -8 4 -17 9 -20 5 -4 7 3 4 14 -6 23 -13 26 -13 6z"/>
<path d="M6970 2830 c0 -5 4 -10 8 -10 5 0 26 -16 48 -35 21 -19 42 -35 45
-35 3 0 17 -10 31 -22 14 -13 40 -34 57 -48 18 -14 43 -34 56 -45 13 -11 38
-31 55 -45 18 -14 45 -37 62 -52 36 -33 43 -35 26 -8 -7 11 -15 20 -18 20 -3
0 -17 10 -32 23 -15 12 -43 36 -64 52 -20 17 -48 40 -62 53 -14 12 -28 22 -31
22 -4 0 -21 12 -38 28 -18 15 -47 38 -64 52 -18 14 -40 33 -51 43 -21 19 -28
21 -28 7z"/>
<path d="M9910 2731 c0 -6 5 -13 10 -16 6 -3 10 1 10 9 0 9 -4 16 -10 16 -5 0
-10 -4 -10 -9z"/>
<path d="M0 2676 c0 -30 4 -36 21 -36 11 0 18 -4 14 -9 -3 -5 -1 -12 5 -16 5
-3 10 1 10 11 0 13 3 14 15 4 11 -9 15 -9 15 -1 0 8 7 7 22 -3 12 -9 32 -13
44 -10 12 3 25 1 28 -5 4 -5 22 -7 40 -4 34 5 136 -13 146 -27 3 -3 45 -11 94
-18 49 -6 94 -16 99 -21 5 -5 16 -7 25 -4 11 5 13 3 7 -6 -6 -10 0 -12 25 -6
21 5 30 4 26 -3 -3 -5 4 -12 17 -15 12 -2 30 -8 40 -12 10 -4 17 -3 17 3 0 6
-13 13 -30 17 -16 4 -30 10 -30 14 0 4 -25 16 -55 26 -30 11 -55 22 -55 26 0
4 -36 15 -80 25 -44 10 -80 22 -80 26 0 4 -8 8 -19 8 -10 0 -35 7 -54 15 -20
8 -55 15 -77 15 -22 0 -40 5 -40 10 0 6 -9 10 -20 10 -11 0 -20 -6 -20 -12 0
-9 -3 -10 -8 -2 -8 12 -41 22 -103 30 l-39 6 0 -36z"/>
<path d="M8932 2678 c9 -13 26 -24 39 -26 23 -3 23 -3 -5 22 -36 32 -53 34
-34 4z"/>
<path d="M9991 2684 c0 -11 3 -14 6 -6 3 7 2 16 -1 19 -3 4 -6 -2 -5 -13z"/>
<path d="M9206 2637 c2 -7 14 -18 25 -25 19 -12 20 -12 3 13 -17 26 -37 35
-28 12z"/>
<path d="M9716 2632 c-3 -5 11 -16 30 -27 19 -10 34 -21 34 -25 0 -4 12 -15
28 -25 21 -13 19 -10 -9 17 -59 54 -78 68 -83 60z"/>
<path d="M2 2534 c3 -15 16 -20 63 -26 33 -4 75 -9 93 -12 18 -2 34 0 37 4 5
8 -43 20 -82 20 -14 0 -21 4 -18 10 4 6 -6 10 -22 10 -15 0 -39 3 -52 7 -19 5
-22 2 -19 -13z"/>
<path d="M9640 2532 c0 -5 12 -14 28 -21 l27 -13 -22 21 c-24 23 -33 26 -33
13z"/>
<path d="M7391 2492 c7 -11 20 -24 31 -31 16 -10 17 -9 7 7 -7 11 -20 24 -31
31 -16 10 -17 9 -7 -7z"/>
<path d="M235 2493 c11 -3 24 -10 28 -17 6 -7 7 -6 4 4 -2 8 -14 16 -28 17
-19 1 -20 1 -4 -4z"/>
<path d="M723 2485 c0 -11 18 -21 59 -32 32 -9 58 -20 58 -24 0 -5 19 -18 43
-29 23 -11 49 -25 57 -30 8 -5 35 -18 60 -29 25 -11 41 -21 35 -21 -5 0 10
-10 34 -21 24 -12 53 -29 64 -40 12 -10 26 -19 33 -19 6 0 22 -8 35 -18 13
-10 32 -22 42 -25 15 -6 16 -4 7 13 -6 11 -14 20 -19 20 -4 0 -20 11 -35 25
-15 14 -40 32 -57 40 -16 9 -29 19 -29 24 0 5 -15 14 -32 20 -55 19 -88 36
-88 43 0 5 -5 8 -11 8 -13 0 -82 31 -89 41 -3 3 -28 14 -57 23 -28 10 -53 21
-55 26 -2 5 -15 11 -29 15 -20 5 -26 3 -26 -10z"/>
<path d="M9900 2482 c0 -4 9 -13 20 -20 19 -12 20 -11 8 8 -13 20 -28 27 -28
12z"/>
<path d="M0 2459 c0 -5 9 -9 20 -9 11 0 20 2 20 4 0 2 -9 6 -20 9 -11 3 -20 1
-20 -4z"/>
<path d="M7460 2430 c6 -11 13 -20 16 -20 2 0 0 9 -6 20 -6 11 -13 20 -16 20
-2 0 0 -9 6 -20z"/>
<path d="M9981 2417 c2 -1 13 -9 24 -17 19 -14 19 -14 6 3 -7 9 -18 17 -24 17
-6 0 -8 -1 -6 -3z"/>
<path d="M0 2353 c0 -14 6 -23 15 -23 8 0 15 -4 15 -10 0 -5 20 -10 44 -10 53
0 210 -27 234 -40 26 -14 112 -29 112 -19 0 5 -9 9 -20 9 -11 0 -20 7 -20 15
0 9 -9 15 -24 15 -45 0 -86 13 -86 26 0 8 -5 14 -11 14 -5 0 -7 -4 -4 -10 3
-5 -3 -10 -13 -10 -11 0 -22 6 -25 14 -3 9 -15 12 -31 9 -14 -3 -26 -1 -26 4
0 12 -20 15 -89 14 -34 -1 -57 3 -63 11 -5 9 -8 6 -8 -9z"/>
<path d="M0 2209 c0 -26 20 -46 54 -55 15 -3 32 -14 39 -24 7 -10 30 -20 52
-23 22 -3 54 -10 72 -17 18 -6 39 -10 48 -8 15 3 14 6 -4 27 -31 35 -26 41 25
36 52 -5 64 -11 64 -31 0 -8 10 -14 24 -14 14 0 28 -4 31 -10 3 -5 19 -10 35
-10 16 0 33 -6 37 -13 4 -8 17 -16 28 -19 11 -3 28 -9 38 -13 10 -4 17 -3 17
4 0 6 -8 11 -17 11 -21 0 -74 39 -55 40 8 0 26 -6 40 -14 15 -8 51 -22 80 -31
28 -9 52 -21 52 -26 0 -5 6 -9 13 -9 18 0 77 -29 77 -38 0 -4 20 -15 45 -25
25 -11 45 -23 45 -28 0 -5 9 -13 20 -17 20 -7 101 -76 188 -159 24 -24 46 -43
49 -43 2 0 23 -18 45 -40 23 -22 46 -40 51 -40 4 0 6 -4 3 -9 -3 -5 1 -11 8
-14 18 -7 86 -112 86 -131 0 -19 -52 -36 -135 -43 -38 -4 -76 -12 -83 -20 -7
-7 -27 -13 -43 -13 -16 0 -29 -3 -29 -8 0 -4 23 -32 50 -62 28 -30 61 -70 73
-87 30 -44 56 -53 164 -56 51 -1 93 -5 93 -9 0 -5 9 -8 20 -8 23 0 60 -29 60
-46 0 -18 22 -32 58 -37 19 -3 35 -7 36 -9 19 -33 27 -60 22 -74 -5 -12 10
-32 50 -72 31 -30 59 -64 63 -76 10 -26 2 -63 -10 -45 -8 14 -124 31 -151 23
-23 -7 -23 -41 0 -47 9 -3 34 -8 56 -12 21 -3 52 -16 67 -28 28 -20 29 -20 43
-2 8 11 11 26 8 34 -5 14 -4 14 10 1 9 -8 14 -18 11 -22 -2 -5 3 -8 12 -8 8 0
21 -11 27 -25 6 -14 17 -25 25 -25 7 0 13 -5 13 -11 0 -8 4 -8 14 0 12 10 19
8 35 -8 12 -12 21 -26 21 -32 0 -7 10 -9 25 -7 14 3 25 1 25 -4 0 -4 11 -6 25
-2 17 4 26 2 29 -7 2 -8 14 -48 26 -89 11 -41 27 -95 35 -120 7 -25 16 -67 20
-95 3 -27 12 -66 19 -85 27 -69 48 -226 27 -204 -9 9 -41 157 -41 190 0 10
-11 27 -25 39 -20 17 -25 32 -31 95 -6 75 -26 125 -52 135 -10 4 -13 -3 -11
-28 2 -17 -1 -34 -6 -37 -6 -3 -11 9 -13 25 -5 53 -12 75 -26 75 -7 0 -18 12
-25 26 -16 36 -25 23 -13 -18 5 -18 15 -60 23 -93 7 -33 16 -64 20 -70 4 -5
10 -30 14 -55 4 -25 11 -49 15 -55 4 -5 13 -35 19 -65 7 -30 20 -83 29 -117
l17 -63 77 0 77 0 -10 33 c-5 17 -13 57 -18 87 -19 115 -44 226 -57 252 -8 15
-14 39 -14 54 0 14 -14 66 -30 116 -31 92 -36 118 -22 118 9 0 52 -55 52 -67
0 -4 10 -28 21 -53 46 -96 61 -144 73 -240 2 -19 13 -78 25 -130 12 -52 21
-111 21 -132 l0 -38 71 0 c61 0 70 2 65 16 -3 9 -9 28 -12 42 -3 15 -14 47
-24 72 -10 25 -27 70 -38 100 -11 30 -24 64 -28 75 -4 11 -8 22 -9 25 -9 25
-20 51 -36 86 -10 23 -19 46 -19 53 0 6 -9 28 -20 48 -11 21 -20 47 -20 58 0
11 -6 29 -14 40 -7 11 -17 34 -20 52 -4 17 -14 37 -22 44 -8 6 -14 20 -14 30
0 10 -5 21 -10 24 -6 4 -17 22 -25 41 -8 20 -28 56 -45 80 -16 25 -30 47 -30
50 0 3 -16 25 -35 48 -19 24 -35 48 -35 54 0 6 -9 16 -20 22 -11 6 -20 16 -20
22 0 6 -7 18 -15 27 -13 14 -43 51 -98 121 -7 8 -31 38 -54 67 -24 28 -43 55
-43 61 0 6 -9 14 -20 17 -11 3 -20 13 -20 21 0 8 -4 14 -9 14 -4 0 -23 16 -42
35 -19 19 -38 35 -44 35 -5 0 -23 14 -39 30 -16 17 -33 30 -38 30 -4 0 -8 5
-8 11 0 6 -25 34 -56 62 -166 152 -164 151 -201 172 -18 11 -33 23 -33 27 0 4
-14 15 -31 23 -16 9 -39 25 -50 36 -10 10 -25 19 -32 19 -8 0 -27 11 -43 25
-16 14 -44 28 -61 31 -18 3 -33 10 -33 15 0 4 -22 16 -50 26 -27 10 -50 21
-50 25 0 3 -22 14 -50 23 -27 9 -50 21 -50 26 0 5 -13 9 -28 9 -33 0 -144 28
-152 38 -3 4 -45 16 -95 26 -49 10 -92 22 -95 27 -3 4 -26 11 -50 14 -105 14
-170 28 -170 36 0 5 -16 9 -35 9 -29 0 -35 -4 -35 -21z m1801 -1362 c4 -15 3
-29 -1 -32 -11 -7 -30 27 -30 50 0 26 23 12 31 -18z"/>
<path d="M1276 2178 c3 -13 7 -23 8 -23 0 0 12 -6 24 -13 13 -7 26 -11 29 -9
8 9 -21 45 -45 56 -22 10 -23 9 -16 -11z"/>
<path d="M9880 2170 c5 -10 19 -22 30 -25 11 -3 20 -12 20 -20 0 -8 9 -16 19
-20 10 -3 31 -17 45 -32 17 -17 26 -21 26 -12 0 17 -51 64 -92 85 -15 8 -28
18 -28 23 0 5 -7 11 -15 15 -13 4 -13 2 -5 -14z"/>
<path d="M6 2142 c-2 -4 -1 -14 5 -22 7 -12 9 -10 9 8 0 23 -5 28 -14 14z"/>
<path d="M4336 2122 c-3 -5 1 -9 9 -9 8 0 15 4 15 9 0 4 -4 8 -9 8 -6 0 -12
-4 -15 -8z"/>
<path d="M1372 2104 c10 -10 20 -15 24 -12 3 4 -5 12 -18 18 -22 12 -22 12 -6
-6z"/>
<path d="M2 1953 l3 -148 35 -16 c19 -9 40 -14 47 -12 7 3 19 -2 28 -10 16
-17 21 -42 5 -32 -5 3 -15 -3 -22 -15 -7 -11 -18 -20 -25 -20 -15 0 -17 -16
-3 -25 13 -8 230 27 230 37 0 11 88 10 92 -1 2 -5 15 -13 30 -16 l27 -7 -15
49 c-8 26 -23 55 -34 65 -11 9 -20 22 -20 30 0 16 -119 128 -137 128 -7 0 -13
4 -13 8 0 5 -16 17 -35 28 -19 10 -35 22 -35 26 0 4 -25 15 -55 24 -30 10 -55
21 -55 26 0 4 -7 8 -15 8 -8 0 -15 5 -15 10 0 6 -5 10 -10 10 -7 0 -10 -51 -8
-147z"/>
<path d="M3303 2030 c1 -11 5 -20 9 -20 11 0 10 28 -1 35 -6 3 -9 -4 -8 -15z"/>
<path d="M4355 2020 c3 -5 10 -10 16 -10 5 0 9 5 9 10 0 6 -7 10 -16 10 -8 0
-12 -4 -9 -10z"/>
<path d="M3323 1980 c1 -11 5 -20 9 -20 11 0 10 28 -1 35 -6 3 -9 -4 -8 -15z"/>
<path d="M4413 1933 c9 -2 23 -2 30 0 6 3 -1 5 -18 5 -16 0 -22 -2 -12 -5z"/>
<path d="M4503 1933 c9 -2 23 -2 30 0 6 3 -1 5 -18 5 -16 0 -22 -2 -12 -5z"/>
<path d="M3416 1725 c8 -37 14 -45 14 -19 0 10 -5 26 -10 34 -8 11 -9 7 -4
-15z"/>
<path d="M9680 1746 c0 -12 66 -76 78 -76 8 0 12 -6 9 -14 -6 -15 28 -54 87
-101 20 -16 50 -41 65 -55 63 -56 95 -79 100 -73 3 3 0 8 -6 10 -7 3 -13 11
-13 18 0 13 -196 214 -241 248 -56 41 -64 46 -71 47 -5 0 -8 -2 -8 -4z"/>
<path d="M547 1733 c-4 -3 -7 -19 -7 -34 0 -19 -6 -28 -21 -32 -32 -9 -20 -41
16 -44 95 -8 157 -28 186 -59 13 -13 31 -24 41 -24 30 0 20 29 -17 47 -19 9
-35 23 -35 30 0 7 -4 13 -10 13 -5 0 -26 16 -46 35 -19 19 -40 35 -45 35 -5 0
-9 6 -9 14 0 20 -39 34 -53 19z"/>
<path d="M5175 1710 c-3 -5 -1 -10 4 -10 6 0 11 5 11 10 0 6 -2 10 -4 10 -3 0
-8 -4 -11 -10z"/>
<path d="M4630 1690 c8 -5 22 -9 30 -9 10 0 8 3 -5 9 -27 12 -43 12 -25 0z"/>
<path d="M4719 1685 c18 -8 40 -15 47 -15 8 0 14 -7 14 -15 0 -8 14 -17 35
-21 42 -8 59 2 21 12 -14 3 -26 10 -26 15 0 4 -23 15 -52 24 -65 19 -84 19
-39 0z"/>
<path d="M0 1665 c0 -9 6 -12 15 -9 19 8 19 24 0 24 -8 0 -15 -7 -15 -15z"/>
<path d="M4880 1661 c0 -5 8 -11 18 -15 17 -5 53 -26 62 -36 3 -3 31 -14 63
-25 31 -11 57 -22 57 -26 0 -4 17 -14 38 -23 41 -18 124 -65 132 -75 3 -4 24
-15 48 -25 23 -11 42 -22 42 -26 0 -4 18 -15 40 -25 22 -10 40 -21 40 -25 0
-7 45 -30 58 -30 14 0 -49 48 -80 61 -18 7 -40 21 -50 31 -10 10 -29 20 -43
24 -14 3 -25 10 -25 15 0 5 -15 16 -32 24 -67 32 -133 67 -138 74 -3 4 -24 15
-47 25 -24 11 -43 22 -43 25 0 4 -25 15 -55 26 -30 10 -55 22 -55 27 0 4 -7 8
-15 8 -8 0 -15 -4 -15 -9z"/>
<path d="M3434 1628 c19 -69 36 -187 42 -292 3 -65 10 -113 14 -106 5 8 9 9
11 1 2 -6 4 22 4 63 0 41 -3 69 -7 63 -7 -12 -14 24 -23 123 -6 66 -32 170
-42 170 -3 0 -2 -10 1 -22z"/>
<path d="M395 1557 c-4 -10 -5 -21 -1 -24 10 -10 18 4 13 24 -4 17 -4 17 -12
0z"/>
<path d="M4880 1560 c0 -5 5 -10 11 -10 6 0 9 -7 5 -15 -3 -9 0 -15 9 -15 8 0
15 -4 15 -10 0 -5 5 -10 12 -10 6 0 3 9 -7 20 -18 20 -11 25 18 14 9 -3 13
-13 10 -25 -3 -10 0 -19 6 -19 5 0 8 7 5 15 -4 9 0 15 10 15 9 0 15 -3 15 -7
-4 -23 4 -32 31 -38 17 -4 30 -11 30 -16 0 -5 5 -9 11 -9 5 0 7 5 4 10 -3 6
-1 10 4 10 6 0 11 -6 11 -14 0 -19 26 -40 35 -26 7 12 26 14 24 3 -4 -24 5
-35 39 -51 20 -9 46 -25 56 -34 11 -10 25 -18 32 -18 7 0 19 -6 26 -13 7 -7
28 -22 47 -33 19 -10 43 -27 53 -36 10 -10 24 -18 31 -18 8 0 24 -9 37 -20 18
-16 25 -17 32 -8 5 9 8 8 8 -6 0 -13 5 -16 17 -12 10 4 14 4 11 0 -8 -8 52
-64 69 -64 6 0 16 -6 20 -14 4 -7 24 -21 43 -31 19 -10 38 -23 43 -29 5 -8 10
-7 16 3 8 12 11 12 25 -1 8 -9 12 -19 8 -22 -3 -4 1 -4 10 -1 11 4 18 0 23
-16 6 -17 9 -19 17 -8 8 11 11 12 15 1 3 -7 16 -25 30 -40 19 -20 26 -23 33
-13 6 11 13 9 31 -8 12 -11 26 -21 31 -21 4 0 8 -9 8 -20 0 -11 6 -21 13 -21
6 -1 19 -3 27 -4 27 -3 50 -17 50 -31 0 -8 9 -14 20 -14 12 0 32 -11 46 -25
28 -28 46 -33 38 -10 -4 8 -12 15 -18 15 -7 0 -23 10 -36 22 -14 13 -39 31
-57 40 -32 18 -61 39 -92 68 -9 9 -33 24 -54 33 -20 10 -37 22 -37 26 0 5 -16
16 -35 25 -19 9 -35 21 -35 25 0 5 -14 14 -30 21 -17 7 -34 18 -38 24 -4 6
-23 20 -42 30 -19 11 -37 23 -40 26 -3 4 -24 17 -47 29 -24 12 -43 25 -43 30
0 4 -18 16 -40 26 -22 10 -40 21 -40 25 0 4 -16 15 -35 24 -19 9 -35 21 -35
25 0 5 -20 16 -45 25 -25 10 -45 21 -45 25 0 14 -54 34 -58 22 -2 -7 -9 -8
-22 -1 -11 6 -17 16 -14 23 3 9 -11 21 -38 33 -24 10 -49 24 -55 31 -7 6 -29
17 -48 23 -19 6 -35 15 -35 19 0 4 -25 15 -55 25 -30 9 -55 21 -55 27 0 5 -9
9 -20 9 -11 0 -20 -4 -20 -10z m150 -70 c8 -5 11 -10 5 -10 -5 0 -17 5 -25 10
-8 5 -10 10 -5 10 6 0 17 -5 25 -10z m145 -71 c11 -16 1 -19 -13 -3 -7 8 -8
14 -3 14 5 0 13 -5 16 -11z m435 -280 c0 -6 -4 -7 -10 -4 -5 3 -10 11 -10 16
0 6 5 7 10 4 6 -3 10 -11 10 -16z"/>
<path d="M5030 1360 c0 -5 7 -10 16 -10 8 0 12 5 9 10 -3 6 -10 10 -16 10 -5
0 -9 -4 -9 -10z"/>
<path d="M5496 1316 c3 -7 20 -20 39 -29 19 -9 35 -21 35 -26 0 -5 9 -11 20
-14 33 -9 17 16 -22 35 -21 9 -38 21 -38 26 0 5 -9 12 -19 15 -13 3 -18 0 -15
-7z"/>
<path d="M5620 1239 c3 -2 17 -15 33 -28 21 -19 27 -21 27 -9 0 9 -8 18 -17
22 -10 3 -25 9 -33 12 -8 4 -13 5 -10 3z"/>
<path d="M0 1055 c0 -142 4 -151 82 -182 23 -9 50 -25 60 -35 10 -10 36 -21
58 -24 22 -4 40 -10 40 -15 0 -5 14 -16 32 -25 17 -9 40 -25 51 -35 11 -10 29
-21 39 -25 10 -3 18 -10 18 -15 0 -5 8 -13 17 -16 14 -6 93 -80 93 -88 0 -2
15 -18 33 -37 41 -43 77 -87 77 -94 0 -3 15 -20 34 -38 18 -18 35 -37 37 -42
13 -29 52 -84 60 -84 5 0 9 -7 9 -15 0 -8 11 -31 25 -51 14 -20 22 -40 20 -44
-3 -5 -1 -11 4 -15 13 -7 61 -110 61 -129 0 -29 38 -36 203 -36 137 0 164 2
164 15 0 8 -4 12 -9 9 -4 -3 -8 2 -8 10 0 9 -4 16 -10 16 -5 0 -10 9 -10 19 0
11 -7 26 -15 35 -8 8 -15 19 -15 24 0 5 -6 15 -14 21 -7 6 -19 32 -26 57 -7
25 -19 48 -27 51 -7 3 -13 11 -13 19 0 8 -9 19 -20 26 -11 7 -20 20 -20 29 0
9 -7 19 -15 23 -8 3 -15 13 -15 23 0 10 -9 24 -20 31 -11 7 -20 19 -20 27 0 8
-7 15 -15 15 -8 0 -15 7 -15 15 0 8 -9 24 -20 35 -11 11 -20 22 -20 24 0 2
-35 39 -77 82 -43 44 -76 82 -75 87 1 4 -2 7 -7 7 -5 0 -38 27 -73 60 -35 33
-71 62 -81 65 -9 4 -17 10 -17 15 0 5 -14 17 -31 25 -16 9 -38 24 -47 33 -29
28 -123 92 -175 118 -17 9 -34 20 -37 23 -3 4 -24 15 -47 25 -24 11 -43 22
-43 26 0 4 -20 15 -45 24 -25 10 -45 21 -45 25 0 8 -59 31 -78 31 -9 0 -12
-36 -12 -125z"/>
<path d="M5727 1169 c7 -7 15 -10 18 -7 3 3 -2 9 -12 12 -14 6 -15 5 -6 -5z"/>
<path d="M4355 1100 c3 -5 8 -10 11 -10 2 0 4 5 4 10 0 6 -5 10 -11 10 -5 0
-7 -4 -4 -10z"/>
<path d="M3391 1055 c0 -6 -16 -19 -33 -30 -18 -10 -39 -26 -46 -34 -48 -59
-53 -87 -10 -57 12 9 19 16 15 16 -14 0 18 27 40 34 12 4 24 13 27 21 3 8 12
15 19 15 8 0 21 7 28 17 13 15 12 15 -8 5 -18 -10 -22 -9 -26 6 -3 9 -5 12 -6
7z"/>
<path d="M1493 962 c2 -26 21 -42 38 -31 11 6 11 13 3 26 -16 25 -43 29 -41 5z"/>
<path d="M3319 923 c-13 -16 -12 -17 4 -4 16 13 21 21 13 21 -2 0 -10 -8 -17
-17z"/>
<path d="M6107 905 c3 -9 20 -23 37 -32 17 -9 36 -23 43 -32 9 -11 12 -12 13
-3 0 7 -15 22 -34 33 -19 11 -37 26 -40 34 -3 8 -10 15 -15 15 -6 0 -8 -7 -4
-15z"/>
<path d="M3366 897 c3 -10 9 -15 12 -12 3 3 0 11 -7 18 -10 9 -11 8 -5 -6z"/>
<path d="M6260 792 c0 -12 19 -26 26 -19 2 2 -2 10 -11 17 -9 8 -15 8 -15 2z"/>
<path d="M6306 756 c3 -7 21 -22 40 -32 19 -10 34 -22 34 -27 0 -4 15 -15 33
-23 17 -8 42 -21 55 -30 21 -15 22 -15 16 0 -3 9 -10 16 -15 16 -4 0 -24 14
-42 30 -19 17 -39 30 -43 30 -5 0 -22 11 -38 25 -32 28 -48 32 -40 11z"/>
<path d="M6210 735 c0 -11 44 -55 54 -55 6 0 20 -10 33 -22 20 -18 23 -19 23
-5 0 18 -34 57 -49 57 -5 0 -11 4 -13 9 -4 10 -48 25 -48 16z"/>
<path d="M6334 654 c3 -8 6 -19 6 -24 0 -4 11 -11 25 -14 14 -4 25 -13 25 -20
0 -14 59 -41 68 -31 8 8 -60 65 -85 71 -13 4 -21 10 -18 14 3 4 -2 11 -11 14
-12 5 -15 2 -10 -10z"/>
<path d="M3997 653 c-12 -11 -8 -19 11 -19 10 0 19 6 19 13 0 14 -19 18 -30 6z"/>
<path d="M6520 615 c0 -8 39 -45 48 -45 6 0 50 -32 107 -78 65 -51 106 -57 49
-7 -21 19 -42 35 -45 35 -3 0 -19 11 -35 25 -16 14 -34 25 -41 25 -7 0 -16 6
-20 14 -12 19 -63 45 -63 31z"/>
<path d="M6483 546 c0 -8 8 -11 20 -8 14 4 16 7 5 13 -19 12 -25 11 -25 -5z"/>
<path d="M6508 523 c7 -3 16 -2 19 1 4 3 -2 6 -13 5 -11 0 -14 -3 -6 -6z"/>
<path d="M3625 470 c-3 -5 1 -10 9 -10 9 0 16 5 16 10 0 6 -4 10 -9 10 -6 0
-13 -4 -16 -10z"/>
<path d="M6594 465 c11 -8 22 -12 25 -9 6 6 -19 24 -34 24 -5 -1 -1 -7 9 -15z"/>
<path d="M4123 453 c9 -2 17 -8 17 -12 0 -4 36 -16 80 -26 44 -10 80 -22 80
-25 0 -7 88 -40 106 -40 3 0 1 7 -6 15 -7 8 -19 15 -27 15 -8 0 -21 7 -29 15
-9 8 -26 15 -38 15 -30 0 -88 20 -104 37 -7 7 -32 12 -55 12 -23 -1 -34 -3
-24 -6z"/>
<path d="M4596 451 c-7 -11 37 -41 59 -41 9 0 18 -6 21 -14 3 -8 16 -17 30
-20 13 -4 33 -15 44 -26 10 -10 33 -26 49 -35 17 -8 31 -19 31 -24 0 -4 18
-16 39 -26 22 -10 42 -24 45 -31 3 -8 11 -14 19 -14 7 0 22 -8 33 -18 10 -9
38 -26 62 -36 23 -11 42 -22 42 -25 0 -3 14 -12 32 -20 17 -8 40 -23 50 -33
11 -11 33 -24 49 -30 16 -5 29 -16 29 -23 0 -14 30 -25 70 -25 24 0 23 2 -14
35 -22 19 -46 35 -53 35 -7 0 -13 5 -13 10 0 6 -16 18 -35 27 -19 9 -35 20
-35 25 0 4 -19 16 -42 27 -24 11 -38 21 -33 21 6 1 -10 12 -35 26 -25 14 -63
36 -85 49 -22 13 -60 34 -85 47 -25 13 -50 28 -56 33 -6 6 -30 17 -53 25 -28
9 -38 16 -29 22 9 5 6 8 -10 8 -12 0 -36 14 -54 30 -30 30 -62 39 -72 21z"/>
<path d="M6684 406 c43 -40 46 -42 46 -23 0 7 -19 24 -42 36 l-43 23 39 -36z"/>
<path d="M4503 313 c9 -2 17 -11 17 -19 0 -8 10 -14 23 -14 18 0 19 2 7 10 -8
5 -10 10 -5 11 15 1 -28 18 -45 17 -10 0 -9 -2 3 -5z"/>
<path d="M5633 223 c-22 -8 -14 -23 11 -23 16 0 27 -7 31 -20 8 -26 45 -27 45
-1 0 20 -27 48 -37 38 -3 -4 -13 -3 -22 2 -9 5 -22 6 -28 4z"/>
<path d="M7112 196 c7 -8 15 -12 17 -11 5 6 -10 25 -20 25 -5 0 -4 -6 3 -14z"/>
<path d="M7030 155 c0 -14 67 -55 90 -55 5 0 -7 16 -27 35 -39 37 -63 45 -63
20z"/>
<path d="M1712 65 c2 -38 7 -51 21 -53 23 -5 22 15 -3 63 l-21 40 3 -50z"/>
<path d="M7180 64 c9 -3 20 -15 25 -27 6 -13 21 -23 35 -25 24 -2 24 -2 6 13
-11 8 -16 15 -10 15 5 0 -4 7 -20 15 -15 8 -33 14 -40 14 -6 -1 -4 -3 4 -5z"/>
</g>
</svg>
